<?xml version="1.0" standalone="no"?>
<!DOCTYPE svg PUBLIC "-//W3C//DTD SVG 1.1//EN" "http://www.w3.org/Graphics/SVG/1.1/DTD/svg11.dtd" >
<svg xmlns="http://www.w3.org/2000/svg">
<metadata></metadata>
<defs>
<font id="diamond_girlmedium" horiz-adv-x="884" >
<font-face units-per-em="2048" ascent="1638" descent="-410" />
<missing-glyph horiz-adv-x="503" />
<glyph horiz-adv-x="2048" />
<glyph horiz-adv-x="2048" />
<glyph unicode="&#xd;" horiz-adv-x="681" />
<glyph unicode=" "  horiz-adv-x="503" />
<glyph unicode="&#x09;" horiz-adv-x="503" />
<glyph unicode="&#xa0;" horiz-adv-x="503" />
<glyph unicode="!" horiz-adv-x="274" d="M61 1460q-2 27 16.5 48.5t46.5 23.5t49.5 -16.5t23.5 -47.5q6 -111 11 -226.5t6 -249.5t2 -221t0 -250t-1 -228q0 -29 -19.5 -48.5t-48 -19.5t-48 19.5t-19.5 48.5q0 68 1 226.5t0 246.5t-2 220t-5 247t-13 227zM94 73.5q0 28.5 19.5 48t48 19.5t48 -19.5t19.5 -48 t-19.5 -48t-48 -19.5t-48 19.5t-19.5 48z" />
<glyph unicode="&#x22;" horiz-adv-x="466" d="M84 1049q16 137 4 368q-2 29 17.5 49.5t47 22.5t48 -17.5t22.5 -46.5q12 -244 -4 -393q-4 -27 -25.5 -44t-49 -14t-45 24.5t-15.5 50.5zM313 1399q-2 29 17.5 49t47.5 22.5t48.5 -17t22.5 -46.5q4 -66 10 -354q0 -29 -19.5 -49.5t-47 -20.5t-48 19.5t-20.5 46.5 q-6 287 -11 350z" />
<glyph unicode="#" horiz-adv-x="1318" d="M94 424q0 29 19.5 48.5t48.5 19.5q86 0 184 6q2 117 2 288q-82 0 -158 2q-29 2 -48 22.5t-17 48.5t22.5 47.5t47.5 17.5q74 -2 153 -2q0 279 2 426q0 27 20.5 46t48 19t47 -20.5t19.5 -49.5q-2 -143 -2 -417q127 8 369 30q2 338 2 363q0 29 19.5 48t48 19t48 -19 t19.5 -48q0 -49 -2 -350q117 10 232 18q29 2 49 -16.5t22 -47t-16.5 -49t-46.5 -22.5q-147 -10 -240 -18q-2 -166 2 -291q74 2 139 2q29 0 48.5 -19.5t19.5 -48t-19.5 -48t-48.5 -19.5q-63 0 -133 -2q8 -154 25 -289q2 -29 -14.5 -50.5t-45 -24.5t-50 13.5t-25.5 44.5 q-16 139 -25 297q-68 -4 -211 -16l-170 -12q-2 -115 -8 -217q-2 -27 -22.5 -46.5t-48 -17.5t-47 22.5t-17.5 49.5q6 94 8 198q-98 -4 -182 -4q-29 0 -48.5 19.5t-19.5 48.5zM481 506q49 4 158 12q141 12 215 17q-4 124 -2 284q-233 -20 -369 -28q0 -168 -2 -285z" />
<glyph unicode="$" horiz-adv-x="892" d="M70 381v37v31q0 29 19.5 48t48 19t48 -19.5t19.5 -47.5v-29v-27v-20q0 -14 2 -21.5t4 -20t5 -23.5t9 -23q23 -59 94.5 -103.5t161.5 -52.5q92 -10 159 20.5t89 94.5q45 121 -8 214t-191 197l-120 88q-78 57 -117 91q-133 119 -133 239q0 133 99 208t224 67 q133 -8 232.5 -108.5t120.5 -276.5q2 -29 -15.5 -50.5t-45 -24.5t-49.5 14t-26 44q-14 131 -78.5 195.5t-146.5 70.5q-78 6 -129 -34.5t-51 -104.5q0 -59 88 -137q37 -33 106 -84l123 -90q45 -35 81 -65.5t76 -73.5t63.5 -88.5t40 -97.5t12.5 -112.5t-29 -125.5 q-43 -119 -152.5 -168t-234.5 -37q-121 12 -225.5 75.5t-145.5 166.5q-8 20 -12 43l-8 36q-4 12 -6 36t-2 30zM408 1571q-2 27 16 48t46 23.5t49.5 -16t23.5 -47.5l6 -90q2 -27 -16.5 -48.5t-46 -23.5t-49 16.5t-23.5 47.5zM494 -211l2 84q0 27 20.5 46.5t48 19.5t47 -20.5 t19.5 -49.5l-2 -84q0 -27 -20.5 -46.5t-48.5 -19.5t-47 20.5t-19 49.5z" />
<glyph unicode="%" horiz-adv-x="1308" d="M104 928q-10 82 23 162q35 88 106 127q62 34 134 20q27 2 47 -12q6 -4 14 -11l23 -12q37 -23 55 -49q29 -41 31 -97.5t-15.5 -104.5t-44.5 -89q-51 -74 -121 -98q-90 -33 -172 20q-70 47 -80 144zM191.5 16.5q-7.5 26.5 5.5 51.5q469 821 966 1374q18 20 46 22 t48.5 -17.5t22.5 -47t-18 -47.5q-483 -537 -947 -1350q-14 -25 -40.5 -32t-51 6.5t-32 40zM238 944q4 -35 20 -45q27 -18 51 -8q31 10 57.5 49t34 83t-5.5 52q-2 4 -14 12l-16 9q-39 18 -66 2q-29 -14 -47 -60q-18 -47 -14 -94zM733 139q-10 82 23 162q35 88 106 127 q61 35 133 21q27 2 47 -13l15 -10l22 -12q37 -23 56 -49q29 -41 30.5 -97.5t-15.5 -104.5t-44 -89q-51 -74 -121 -99q-90 -33 -172 21q-70 47 -80 143zM866 156q4 -35 21 -45q27 -18 51 -9q31 10 57.5 49t33.5 83.5t-5 52.5q-2 4 -14 12l-17 8q-39 18 -65 2q-29 -14 -47 -59 q-18 -47 -15 -94z" />
<glyph unicode="&#x26;" horiz-adv-x="1183" d="M115 774q-12 111 48 258.5t154 249.5q113 125 228 125q143 -2 219 -190q10 -25 -1 -50.5t-37 -37t-51.5 0t-37.5 37.5q-41 104 -94.5 104.5t-124.5 -79.5q-78 -86 -127 -205q-49 -121 -41 -196q4 -31 14 -41q6 -6 23 -7q43 0 133 43q23 10 96 54q4 2 14 10l23 16 q14 12 22.5 16.5t18.5 6.5q16 4 33 0q43 -10 51 -53q2 -18 -4 -37q-2 -6 -6 -13q-2 -4 -6 -10q-18 -23 -54 -47q-31 -23 -37 -29q-45 -41 -107.5 -122.5t-107.5 -165.5q-51 -100 -61 -172q-10 -66 20 -97q18 -16 56 -20q143 -18 272 123q86 92 150 231q-111 -16 -207 -16 q-29 0 -48.5 19.5t-19.5 48t19.5 48t48.5 19.5q63 0 136 8t122 19l139 24l135 27q27 6 50.5 -10.5t28.5 -43t-11.5 -50t-42.5 -27.5q-37 -8 -107.5 -22.5t-85.5 -16.5q-80 -211 -207 -350q-178 -193 -389 -166q-84 10 -133 61q-78 78 -61 209q14 96 78 217q35 66 84 137 q-18 -4 -35 -4q-70 0 -115 41q-47 43 -57 125z" />
<glyph unicode="'" horiz-adv-x="262" d="M86 1206q27 125 27 324q0 29 19.5 48t48 19t48 -19t19.5 -48q0 -213 -31 -352q-6 -27 -29.5 -42.5t-50 -9t-42 30t-9.5 49.5z" />
<glyph unicode="(" horiz-adv-x="481" d="M70.5 553q-9.5 172 16.5 366.5t71 353.5t106 324q10 25 36 37.5t51.5 2t37.5 -36t2 -52.5q-61 -162 -104 -316.5t-66.5 -332.5t-14.5 -334.5t63.5 -311.5t154.5 -276q18 -20 16 -47.5t-23.5 -46t-49 -16.5t-45.5 24q-117 137 -179.5 313.5t-72 348.5z" />
<glyph unicode=")" horiz-adv-x="514" d="M84 1569.5q2 27.5 23.5 46t49 16.5t46.5 -24q117 -137 177 -314.5t68.5 -349.5t-19.5 -367.5t-73 -353t-106 -321.5q-10 -25 -36 -37t-51.5 -2t-37.5 35.5t-2 52.5q61 160 104 314.5t69 333.5t18.5 336t-60.5 312.5t-154 274.5q-18 20 -16 47.5z" />
<glyph unicode="*" horiz-adv-x="819" d="M82 1248q-4 28 12.5 51.5t44 27.5t51.5 -12l164 -119q0 59 -2 156q0 29 19.5 49t47 20t48 -19.5t20.5 -45.5q2 -82 2 -137q76 55 146 98q23 14 50.5 8t41.5 -29.5t8 -51t-30 -42.5q-81 -51 -181 -127l242 -172q23 -16 28 -44t-11.5 -50.5t-44 -27.5t-50.5 12l-199 141 q-2 -98 -6 -184q-2 -29 -22.5 -47.5t-49 -16.5t-47 22.5t-16.5 49.5q6 86 6 180l-153 -121q-23 -18 -50.5 -14t-45 26.5t-13.5 50t27 44.5l182 145l-192 135q-23 16 -27 44z" />
<glyph unicode="+" horiz-adv-x="776" d="M82 812q-2 28 16.5 49.5t46.5 23.5q104 8 209 24l-22 187q-2 29 15.5 50t45 24.5t49 -14t25.5 -44.5l20 -182l195 37q27 6 50.5 -9.5t28.5 -43t-10.5 -51t-43.5 -27.5l-203 -39q14 -102 31 -185q6 -29 -9.5 -51t-43 -28.5t-50 9t-29.5 42.5q-18 84 -32 190 q-117 -18 -217 -24q-27 -2 -48.5 16t-23.5 46z" />
<glyph unicode="," horiz-adv-x="395" d="M58 -165q5 28 30 42q80 55 114 104.5t42 131.5q4 29 25.5 46t49 14t45 -24.5t15.5 -48.5q-12 -119 -63.5 -192.5t-153.5 -140.5q-23 -16 -50.5 -11.5t-43 28t-10.5 51.5z" />
<glyph unicode="-" horiz-adv-x="671" d="M61 660.5q2 27.5 22.5 47t47.5 17.5q190 -8 412 16q29 2 50 -15t24.5 -45t-14 -49.5t-44.5 -25.5q-233 -25 -432 -16q-29 2 -48.5 22.5t-17.5 48z" />
<glyph unicode="." horiz-adv-x="276" d="M102 71.5q0 28.5 19.5 48t48.5 19.5t48.5 -19.5t19.5 -48t-19.5 -48t-48.5 -19.5t-48.5 19.5t-19.5 48z" />
<glyph unicode="/" horiz-adv-x="989" d="M116 28.5q-9 26.5 3 51.5l375 743q164 311 346 602q14 25 41.5 31t51 -8t30 -42t-8.5 -50q-180 -289 -342 -598l-370 -735q-12 -27 -39 -36.5t-52.5 3t-34.5 39z" />
<glyph unicode="0" horiz-adv-x="1107" d="M72 653q-10 264 75 480q98 246 285 319q8 2 19 6q16 10 34 10h31q6 0 15.5 1t14.5 1t7 3q28 3 53 -15q195 -43 314 -235q133 -211 135 -521q2 -301 -119 -514q-66 -115 -165 -178t-224 -55q-225 16 -357 240q-109 186 -118 458zM207 659q10 -242 100 -397 q94 -162 248 -172q162 -12 264 166q102 180 101 446q-2 268 -115 449q-109 172 -283 182q-27 -2 -41 -8q-131 -51 -209 -242q-74 -188 -65 -424z" />
<glyph unicode="1" horiz-adv-x="290" d="M102 1403q0 29 19.5 49.5t47.5 20.5t48.5 -19.5t20.5 -46.5q4 -213 8 -673t8 -699q0 -29 -19.5 -49.5t-47 -20.5t-48 19.5t-20.5 46.5q-4 242 -8.5 701.5t-8.5 670.5z" />
<glyph unicode="2" horiz-adv-x="1024" d="M115 82q2 6 6 12l4 8l8 9l19 22l61 66l139 155q195 223 285 357q152 223 162 387q4 57 -20.5 105t-65.5 72.5t-92.5 30t-100.5 -27.5q-123 -78 -223 -236q-14 -23 -42 -28.5t-51.5 8.5t-29.5 41.5t8 52.5q117 182 269 277q88 57 177 50t159.5 -53.5t111.5 -128t35 -171.5 q-14 -199 -184 -455q-94 -139 -295 -371l-127 -139q53 0 159 4q360 6 451 4q27 0 46.5 -20.5t19.5 -48t-20.5 -47t-49.5 -19.5q-86 2 -445 -4q-154 -4 -215 -4h-71h-23q-6 2 -12 2l-12 4q-18 6 -33 22q-23 33 -8 64z" />
<glyph unicode="3" horiz-adv-x="1099" d="M81 241.5q9 26.5 33.5 40t51.5 4t41 -33.5q39 -80 141.5 -116t231.5 -17.5t224 82t118 151.5q35 123 -35 235.5t-197 137.5q-31 4 -119 -6q-10 0 -32.5 -2t-30.5 -4q-16 -2 -25.5 -2t-17.5 2q-37 12 -51 35q-18 33 0 65q6 12 16 21q8 6 16 10q4 2 17 6q27 12 39 18 q68 31 112 72q190 164 123 297q-53 100 -170 70q-57 -16 -113.5 -55.5t-91.5 -84.5q-18 -20 -45.5 -23t-49 14.5t-24.5 44.5t13 50q47 59 122 110.5t154 72.5q96 27 184.5 -4t139.5 -134q29 -53 33 -107t-9.5 -100.5t-40 -92.5t-54 -78.5t-62.5 -63.5q184 -37 281 -201 q98 -162 49 -340q-37 -137 -168 -221q-129 -86 -287 -108q-160 -23 -304 26t-210 178q-12 25 -3 51.5z" />
<glyph unicode="4" horiz-adv-x="1089" d="M88 516q2 4 4 10q2 2 4 6.5t6 8.5l15 20l43 60l88 120q319 451 405 713q8 27 33 40t51.5 4t40 -33.5t2.5 -51.5q-90 -283 -422 -749l-77 -107q10 0 52 3t60 3q283 10 420 10l-2 23q-8 354 -35 582q-2 29 15.5 50t45 24t49 -14t25.5 -44q27 -236 35 -596l2 -29l80 -4 q29 -2 47.5 -23.5t16.5 -49t-23.5 -46t-48.5 -16.5l-70 4q6 -287 13 -424q2 -29 -17.5 -49t-47.5 -22t-48.5 17t-22.5 46q-6 139 -12 436q-135 0 -418 -10q-18 0 -70.5 -3t-78.5 -5q-45 -2 -70 0q-18 2 -33 6q-39 10 -53 43q-12 27 -4 47z" />
<glyph unicode="5" horiz-adv-x="1079" d="M68 167q0 28 19 48.5t47 20.5t48 -19q143 -139 338 -135q61 2 103 4q68 4 84 10q102 39 156.5 127t53 194.5t-37.5 223.5q-57 158 -211 235.5t-308 24.5q-8 -2 -43 -31q-57 -43 -106 -43q-39 0 -59 33q-4 8 -9 19q-2 8 -4 18q-2 18 -4 45q-6 55 -6 127q-4 197 23 268 q12 33 39.5 57.5t60.5 35.5q72 18 274 16q55 0 146.5 -2t118.5 -2q29 0 48 -19.5t19 -48t-19 -48t-48 -19.5q-27 0 -119 2t-146 2q-184 2 -237 -13q-8 -2 -10 -10q-18 -47 -15 -217q0 -37 2 -70q27 18 49 27q211 74 413 -29.5t278 -312.5q35 -96 42 -199.5t-14.5 -205 t-93.5 -185.5t-184 -127q-37 -12 -125 -18q-43 -2 -107 -4q-252 -4 -436 172q-20 20 -20 48z" />
<glyph unicode="6" horiz-adv-x="1007" d="M88 547q0 172 40 351t95 296q106 215 262 262q92 29 178.5 -14t155.5 -152q14 -25 8 -52.5t-29.5 -41.5t-51 -8t-41.5 29q-88 139 -181 110q-45 -14 -92 -64.5t-86 -129.5q-45 -88 -80 -230.5t-41 -286.5q51 72 117 125q150 119 291 109q233 -16 317 -195q70 -150 2 -344 q-29 -84 -80 -159q-53 -74 -127.5 -130.5t-165 -72t-192.5 17.5q-84 31 -145.5 91.5t-93 142.5t-46 166t-14.5 180zM238 369q45 -221 194 -275q119 -43 231.5 36t161.5 224q49 143 2 244q-49 106 -202 117q-90 6 -197 -80q-102 -82 -184 -258q-2 -4 -6 -8z" />
<glyph unicode="7" horiz-adv-x="905" d="M43 1344.5q-2 29.5 15 51t46 23.5q174 14 377 29q145 8 230 10q51 2 82 0q18 -2 30 -4q10 -2 19 -4q20 -8 35 -25q20 -29 12 -75q-2 -20 -12 -50q-14 -45 -46 -116q0 -2 -83 -183q-102 -221 -175 -458.5t-147 -550.5q-6 -27 -29.5 -41t-51.5 -8t-42 29.5t-8 52.5 q76 317 149.5 559.5t180.5 474.5q80 174 82 180q23 51 34 82h-26q-84 -2 -226 -10q-201 -12 -372 -29q-29 -2 -50.5 15.5t-23.5 47z" />
<glyph unicode="8" horiz-adv-x="1024" d="M63 426q12 123 73 238.5t153 181.5q-35 31 -70 82q-51 92 -47 179t51 167q47 78 124 129t165 59q168 14 268 -73q92 -82 92 -218q-2 -84 -41.5 -165.5t-113.5 -143.5q152 -59 222.5 -189t53.5 -282q-10 -86 -50 -168t-104.5 -145.5t-157.5 -98t-202 -28.5 q-229 14 -340 162q-94 127 -76 313zM197 412q-12 -133 51 -217q74 -98 239 -109q152 -10 252 86q102 96 118.5 235.5t-66 243t-265.5 113.5h-2q-23 0 -41 3t-22 3h-19q-84 -16 -157.5 -120.5t-87.5 -237.5zM334 1001q10 -16 17 -26t19.5 -19.5t16.5 -13.5t27 -16l32 -21 q27 0 64 -4h4q104 35 162.5 114t60.5 159q0 72 -47 114q-55 49 -166 39q-53 -4 -104 -37q-49 -35 -80 -86q-68 -111 -6 -203z" />
<glyph unicode="9" horiz-adv-x="962" d="M70 1051q23 86 68.5 165.5t112 141t160 87t193.5 1.5q86 -23 151.5 -78t104.5 -133t60.5 -161t31.5 -177q16 -174 -7 -356.5t-68 -300.5q-86 -223 -238 -287q-90 -37 -180 -1t-166 138q-18 23 -14 50.5t26.5 45t50 13.5t43.5 -27q98 -131 189 -94q45 18 88 74 q43 53 74 137q35 92 55 233q23 143 16 289q-45 -76 -104 -133q-137 -131 -279 -133q-233 -4 -334 166q-82 141 -34 340zM201 1020q-35 -145 20 -242q59 -100 213 -98q90 2 189 96q94 88 161 275q0 4 2 6q-61 219 -215 258q-125 31 -229 -57.5t-141 -237.5z" />
<glyph unicode=":" horiz-adv-x="253" d="M76 204.5q0 28.5 19.5 48t48 19.5t48 -19.5t19.5 -48t-19.5 -48t-48 -19.5t-48 19.5t-19.5 48zM76 870.5q0 28.5 19.5 48t48 19.5t48 -19.5t19.5 -48t-19.5 -48t-48 -19.5t-48 19.5t-19.5 48z" />
<glyph unicode=";" horiz-adv-x="368" d="M-20 -167q0 28 20 48q68 66 104 115q37 51 52 115q6 27 29.5 41t51 8t42 -29.5t8.5 -52.5q-20 -88 -68.5 -154.5t-124.5 -140.5q-20 -18 -48 -18.5t-47 20t-19 48.5zM199 870.5q0 28.5 19.5 48t48 19.5t48 -19.5t19.5 -48t-19.5 -48t-48 -19.5t-48 19.5t-19.5 48z" />
<glyph unicode="&#x3c;" horiz-adv-x="755" d="M76 483q0 8 1 17.5t3 13.5l2 4l4 8q2 2 4 6q2 0 4 3l4 6l15 16l51 55l158 166q236 250 258 279q18 20 45.5 23t49 -14t24.5 -44.5t-13 -50.5q-6 -8 -266 -285l-158 -168l-29 -31l27 -26l156 -139q199 -172 268 -226q23 -16 27 -43.5t-13.5 -50t-45 -27t-50.5 14.5 q-72 55 -274 229l-160 143q-35 33 -53 54q-12 14 -21 22q-16 23 -18 45z" />
<glyph unicode="=" horiz-adv-x="679" d="M96 857q-6 28 8 51.5t41 29.5q35 8 174.5 45t212.5 51q29 6 52.5 -9t28.5 -43t-10 -51.5t-42 -27.5q-76 -16 -212 -52t-171 -44q-29 -6 -52.5 8t-29.5 42zM129 648.5q-6 27.5 8 51t41 29.5q35 8 174.5 45t212.5 51q29 6 52.5 -9t28.5 -43t-10 -51.5t-42 -27.5 q-76 -16 -212 -52t-171 -44q-29 -6 -52.5 8.5t-29.5 42z" />
<glyph unicode="&#x3e;" horiz-adv-x="755" d="M104 996q-4 28 13.5 50.5t45 26.5t50.5 -14q78 -57 274 -228l160 -143q35 -33 53 -53q12 -14 21 -23q16 -23 18 -43q0 -10 -1 -20t-5 -14l-2 -5l-4 -8q-2 -2 -4 -5t-4 -7l-17 -16l-51 -56l-157 -168q-236 -252 -256 -278q-18 -20 -46 -23.5t-49.5 14t-24.5 45t13 50.5 q27 31 264 284l158 168l29 33l-27 27l-156 139q-195 166 -268 223q-23 16 -27 44z" />
<glyph unicode="?" horiz-adv-x="755" d="M59 991q23 154 117 265.5t217 156.5q129 45 228 4q119 -51 131 -192q10 -127 -80 -264q-16 -27 -41 -58l-41 -51l-49 -57l-43 -50q-106 -127 -152.5 -232t-17.5 -230q6 -27 -8.5 -50.5t-42 -29.5t-51 8t-29.5 43q-12 51 -13.5 103.5t6 95.5t23.5 89t33.5 80.5t45 75.5 t50.5 68l53 65q14 18 43 54l47 53q16 18 37 45l37 51q63 98 57 178q-4 61 -47 80q-51 20 -129 -6q-90 -33 -159.5 -116t-85.5 -199q-4 -27 -27 -44.5t-50.5 -13t-45 26.5t-13.5 51zM215 53.5q0 28.5 19.5 48t48 19.5t48 -19.5t19.5 -48t-19.5 -48t-48 -19.5t-48 19.5 t-19.5 48z" />
<glyph unicode="@" horiz-adv-x="1433" d="M100 680q18 174 86 332q70 156 183 268q82 80 174 125q96 45 213.5 55t244.5 -28q141 -43 246 -139.5t154 -233.5q59 -160 16 -332q-25 -94 -81 -164.5t-148 -97.5q-76 -20 -157 12.5t-128 93.5q-55 -90 -112 -145q-78 -74 -154 -74q-100 -2 -166 111q-53 92 -20 233 q29 125 108 226q90 115 201 129q135 20 233 -119q16 -23 11 -50.5t-27 -43.5q-12 -8 -27 -11q2 -2 6 -4q23 -16 31 -45q4 -18 0 -45q0 -4 -1 -11t-1 -13q8 -33 19 -47q23 -35 68.5 -55.5t78.5 -10.5q100 27 135 164q33 131 -12 254q-39 104 -120 180t-189 106 q-295 88 -502 -116q-92 -92 -151.5 -228.5t-75.5 -291.5q-16 -141 29.5 -263t129.5 -201t199 -121t231.5 -37t232.5 65.5t199 171.5q16 23 44 26.5t50.5 -14t26.5 -45t-14 -49.5q-98 -133 -240.5 -206t-287 -81t-287.5 42t-248.5 145.5t-162 248t-38.5 334.5zM582 666 q-20 -88 8 -138q25 -43 43 -41q25 0 63 37q76 72 131 193v22q2 27 9 45q18 43 65 52h2q-12 6 -20 18q-51 72 -105 64q-55 -8 -112 -80q-61 -76 -84 -172z" />
<glyph unicode="A" horiz-adv-x="1228" d="M61 35q41 143 99 317q-23 18 -25 47q-2 27 16.5 48.5t47.5 23.5l69 205l80 237l68 203q14 51 63 184l39 103q8 23 14 35q2 8 7 12q2 6 6 10q6 8 12 13q19 17 43 17q5 0 10 -1q25 -4 41 -25q6 -4 8 -10q4 -6 6.5 -11t4.5 -16q4 -12 10 -36l31 -117l61 -248 q86 -330 162 -539q41 -16 41 -61q0 -16 -6 -29q104 -268 221 -409q16 -18 16 -43v-6q-2 -29 -24 -47q-19 -16 -44 -15h-6q-28 2 -45 25q-133 160 -249 456q-275 -2 -539 -16q-63 -190 -106 -344q-8 -27 -33 -40t-52 -6q-26 8 -40 32q-9 17 -9 35q0 8 2 16zM344 479 q219 12 444 15q-68 195 -147 499l-53 211q-33 -96 -45 -129q-19 -64 -199 -596z" />
<glyph unicode="B" horiz-adv-x="1024" d="M43 1341v6q-1 25 15 45q18 22 46.5 23.5t50 -16t23.5 -45.5l2 -17q6 6 15 13q53 35 141 61.5t172 28.5h18q37 0 71 -6q42 -8 85 -26.5t73.5 -58.5t41.5 -96q4 -23 3 -46q0 -129 -118 -257q-41 -43 -96 -88h19q57 0 108 -10q217 -37 282 -219q22 -61 22 -120 q0 -55 -20 -111q-41 -112 -135 -203q-84 -79 -225 -139q-125 -53 -331 -53q-27 0 -56 1q-4 0 -10 2q-17 -30 -54 -30h-2q-29 0 -48 19t-19 48q0 504 -74 1294zM195 1176q18 -213 30 -394q6 2 10.5 3t6.5 2t4 1t4 3l18 12l17 8q4 2 9 4t7 4h4l2 2l2 2h4l4 4q2 4 7 7l57 43 q145 106 203 165q80 87 80 162q0 13 -2 25q-11 76 -137 76h-13q-66 -2 -135.5 -22.5t-108.5 -47.5q-5 -4 -73 -59zM236 616q14 -252 16 -473h6q41 -5 81 -5q110 0 217 40q146 55 214 119q112 106 112 214q0 38 -14 77q-39 106 -178 131q-43 8 -88 8q-87 0 -184 -29 q-68 -18 -135 -57q-33 -18 -43 -23q-2 -2 -4 -2z" />
<glyph unicode="C" horiz-adv-x="1013" d="M86 604v38q0 222 43 392q25 92 70 188.5t106 155.5q57 56 122 74q37 11 71 10q26 0 50 -6q56 -14 105 -57q63 -55 101.5 -142.5t38.5 -179.5q0 -29 -19.5 -48t-48.5 -19t-48.5 19t-19.5 48q0 63 -25.5 124t-66.5 95q-36 30 -73 30q-46 0 -93 -46q-43 -41 -80.5 -121 t-58.5 -158q-39 -152 -39 -355v-38q6 -252 72 -364q72 -121 186 -150q26 -6 52 -6q87 0 161 72q113 106 193 366q8 27 33.5 40.5t51.5 5.5t40 -34q8 -16 9 -33q0 -10 -3 -20q-90 -291 -230 -424q-116 -109 -250 -109q-42 0 -87 11q-170 41 -271 211q-86 145 -92 430z" />
<glyph unicode="D" horiz-adv-x="1105" d="M72 1346q0 12 2 20q2 25 17 41t38 20q54 10 109 10q80 0 162 -22q136 -37 250 -117.5t206 -191.5q88 -106 148 -234q84 -181 84 -342q0 -87 -25 -168q-39 -129 -140.5 -223t-263.5 -141q-91 -26 -186 -26q-129 0 -264 48q-17 -40 -60 -40h-6q-29 2 -47 22.5t-16 48.5 q4 59 6 121q1 41 1 85v46q-1 70 -2 116t-3 131t-2 120q-2 78 -2 313.5t-6 362.5zM209 1303q4 -117 4 -330q0 -199 2 -299q6 -319 6 -457v-57q132 -52 253 -52q77 0 149 21q252 72 311 272q19 61 19 129q0 132 -72 285q-100 215 -289 357q-177 132 -357 132q-13 0 -26 -1z " />
<glyph unicode="E" horiz-adv-x="899" d="M35 1348v5q-1 26 17 44q20 20 46 22q10 0 21 -2q416 43 618 51h5q24 0 42 -17q20 -19 22.5 -47t-17 -48.5t-48.5 -22.5q-197 -8 -569 -47q14 -307 21 -487h2q309 33 458 37q29 0 49.5 -18.5t20.5 -47.5t-18.5 -49.5t-47.5 -20.5q-145 -4 -446 -36h-14q3 -127 3 -244 q0 -156 -5 -295q496 31 602 33q29 0 49 -18.5t20 -47.5t-18.5 -49t-46.5 -20q-98 -2 -203.5 -8.5t-243.5 -14.5l-204 -14q-12 -4 -27 -4q-29 2 -48.5 22.5t-17.5 46.5q5 155 7 313q0 34 1 69q-1 131 -5 279q-6 190 -9 302z" />
<glyph unicode="F" horiz-adv-x="819" d="M92 1348v5q0 26 18 44q20 20 46 22q10 0 20 -2q416 43 619 51h5q24 0 42 -17q20 -19 22 -47v-5q0 -25 -18 -43q-20 -20 -47 -23q-197 -8 -570 -47q14 -307 21 -487h2q309 33 459 37q29 0 49 -18.5t20 -47.5t-18.5 -49.5t-46.5 -20.5q-145 -4 -447 -36h-14q3 -138 3 -264 q0 -189 -7 -353q-2 -29 -22 -48q-19 -17 -43 -17h-5q-28 2 -47.5 22.5t-17.5 46.5q6 155 7 313v53q0 137 -4 295q-5 190 -9 302z" />
<glyph unicode="G" horiz-adv-x="995" d="M76 590q-1 28 -1 55q0 137 25 270q31 162 84 273q74 152 166 224q68 52 143 52q27 0 54 -6q172 -43 282 -334q10 -27 -2 -52t-37.5 -35.5t-51.5 1.5t-36 37q-41 113 -92 176.5t-96 75.5q-6 1 -13 1q-35 0 -80 -33q-54 -40 -114 -165q-47 -96 -73 -242q-24 -126 -24 -255 q0 -19 1 -39q4 -160 48 -282t124 -179q52 -37 102 -37q34 0 66 17q80 43 158 174q61 109 104 243q12 43 21 70h-7q-35 3 -89 3q-27 0 -58 -1q-49 0 -106.5 -1t-100.5 -3t-49 -2q-29 0 -49.5 19.5t-20.5 47t19.5 48t46.5 20.5q8 0 51 2t100.5 3t106.5 1q33 1 62 1q57 0 96 -3 q39 -2 61 -6q16 -2 27 -8q31 -10 43 -35q10 -20 10 -45v-8q-2 -16 -6 -39q-8 -45 -29 -105q-47 -147 -117 -270q-96 -164 -209 -225q-67 -36 -133 -36q-89 0 -178 65q-115 84 -168 235q-55 152 -61 332z" />
<glyph unicode="H" horiz-adv-x="931" d="M12 640v5q0 25 16 45q18 22 46 23l18 2q1 91 1 175q0 292 -11 490q-2 29 16.5 49.5t47 22.5t49 -16t22.5 -47q11 -199 11 -490q0 -83 -1 -174q299 25 475 37q-24 299 -24 623v26q0 29 19.5 48.5t48 19.5t48 -19.5t19.5 -48.5q0 -336 25 -649q39 -17 39 -61q0 -34 -29 -56 q25 -270 76 -596q1 -5 1 -11q-1 -22 -15 -40q-18 -22 -45 -26.5t-49.5 13t-27.5 44.5q-49 328 -73 598q-178 -12 -488 -37q-2 -94 -2 -127q0 -63 4 -219q3 -100 3 -167q0 -34 -1 -59q0 -29 -20.5 -47t-49 -18t-47 20.5t-18.5 49.5q1 23 1 55q0 64 -3 162q-4 158 -4 223 q0 39 2 115h-6q-29 -2 -50.5 16t-23.5 46z" />
<glyph unicode="I" horiz-adv-x="264" d="M82 1380v6q0 26 16 44q18 20 48 22h5q25 0 43 -16q20 -18 23 -47q8 -150 8 -926q0 -63 4 -219q3 -100 3 -167q0 -34 -1 -59q0 -29 -20.5 -47t-49 -18t-47 20.5t-18.5 49.5q1 23 1 55q0 64 -3 162q-4 158 -4 223q0 772 -8 917z" />
<glyph unicode="J" horiz-adv-x="821" d="M37 389q6 246 100 490q10 27 36 38t52.5 0.5t37.5 -36t1 -52.5q-88 -219 -92 -444v-14q0 -256 139 -312q41 -16 87 -18h11q39 0 66 12q104 47 152 207q38 127 38 313q0 33 -1 68q-6 195 -43 395q-39 201 -80 332q-10 27 3 51.5t40 33.5q10 4 21 4q15 0 29 -8 q25 -13 34 -40q45 -137 84 -348q41 -211 47 -416q1 -34 1 -67q0 -208 -44 -357q-66 -217 -224 -291q-63 -24 -127 -24h-14q-70 2 -129 26q-225 92 -225 439v18z" />
<glyph unicode="K" horiz-adv-x="1079" d="M82 1380v6q0 26 16 44q18 20 48 22h5q25 0 43 -16q20 -18 23 -47q12 -205 12 -478l142 162l301 334q18 20 45.5 22.5t48 -17t22.5 -47.5t-18 -48l-299 -334l-172 -195l-49 -59q25 -27 69 -70l113 -102q53 -47 111 -92l125 -94l112 -80l127 -92l123 -84q23 -16 28 -44 q1 -7 1 -13q-1 -22 -13 -38q-16 -22 -43.5 -27t-50.5 11l-118 82l-132 92l-116 84q-70 49 -129 96l-115 97l-115 106q-2 -63 -2 -98q0 -63 4 -219q3 -100 3 -167q0 -34 -1 -59q0 -29 -20.5 -47t-49 -18t-47 20.5t-18.5 49.5q1 23 1 55q0 64 -3 162q-4 158 -4 223 q0 772 -8 917z" />
<glyph unicode="L" horiz-adv-x="950" d="M92 1348v5q0 26 18 44q20 20 46 22h6q24 0 42 -17q20 -19 23 -46q29 -607 29 -987q0 -136 -4 -244q496 31 602 33q29 0 49.5 -18.5t20.5 -47.5t-18.5 -49t-47.5 -20q-98 -2 -203.5 -8.5t-242.5 -14.5l-205 -14q-12 -4 -27 -4q-29 2 -48 22.5t-17 46.5q6 155 7 313v53 q0 137 -4 295q-5 190 -9 302z" />
<glyph unicode="M" horiz-adv-x="1376" d="M68 1192q-1 38 -1 68t1 51v43q2 10 4 18q4 25 18 41q18 18 41 20.5t33 -3.5l18 -9q10 -8 19 -20q8 -10 20 -31q16 -29 43 -84l74 -166q55 -127 147 -286q61 -106 105 -160l8 -8l33 73l123 287q82 190 129 291q31 63 51 100q12 20 22 33q8 10 17 18q20 16 43 19h8 q46 0 74 -45q12 -20 20 -53q14 -45 27 -127l12 -82l8 -82q4 -35 4 -39q72 -586 203 -1053q2 -9 2 -17q0 -19 -9 -35q-13 -24 -40 -31q-9 -2 -18 -2q-17 1 -33 9q-24 14 -33 39q-133 477 -207 1073q0 4 -3 39t-8 78t-11 82l-4 23l-2 -7q-47 -98 -129 -284l-123 -287l-41 -98 q-10 -18 -15 -31q-4 -6 -7 -11t-5 -7q-10 -14 -24 -21q-22 -12 -45 -12q-30 0 -62 20q-33 18 -68 62q-53 61 -118 178q-98 168 -154 301l-8 18q2 -80 2 -92q0 -164 5 -492.5t5 -492.5q0 -29 -19.5 -48t-48 -19t-48 19t-19.5 48q0 164 -5 492.5t-5 492.5q0 10 -1 41t-2 77 t-3 81z" />
<glyph unicode="N" horiz-adv-x="1081" d="M117 35q6 139 8 285q1 73 1 161.5t-1 193.5q-2 210 -2 286v208v134q2 25 2 38q4 14 10 27q10 20 31 31q29 14 59 0q37 -16 74 -70q23 -33 49 -88l41 -88q20 -47 27 -59q244 -459 469 -779q2 -2 43 -65q-29 229 -31 250q-20 303 -23 368q-2 84 -4 266.5t-4 278.5 q0 29 18.5 49.5t47.5 20.5t49 -18.5t20 -47.5q2 -96 4.5 -278.5t4.5 -266.5q2 -61 22 -364q0 -14 29 -248q14 -98 18 -147q4 -33 6 -52v-18v-10q0 -6 -2 -10q-4 -25 -24 -39q-22 -17 -46 -17q-22 0 -46 15q-18 10 -37 32q-27 29 -66 84q-23 33 -54.5 84t-35.5 56 q-231 328 -477 794q-8 14 -31 66l-8 16v-153q0 -74 2 -287q1 -106 1 -196t-1 -164q-2 -148 -8 -287q-2 -27 -22 -47q-19 -18 -43 -17h-5q-28 3 -48 23q-18 19 -17 44v5z" />
<glyph unicode="O" horiz-adv-x="1052" d="M78 653q-1 28 -1 54q0 232 77 426q98 246 284 319q8 2 19 6q16 10 35 10h30q6 0 15.5 1t14.5 1t7 3h8q24 0 45 -15q195 -43 314 -235q133 -211 135 -521v-10q0 -295 -119 -504q-66 -115 -165 -178q-88 -56 -196 -56q-14 0 -28 1q-225 16 -356 240q-109 186 -119 458z M213 659q10 -242 100 -397q94 -162 248 -172q10 -1 20 -1q148 0 244 167q101 178 101 441v5q-2 268 -115 449q-109 172 -283 182q-27 -2 -41 -8q-131 -51 -208 -242q-67 -170 -67 -378q0 -23 1 -46z" />
<glyph unicode="P" horiz-adv-x="878" d="M82 1380v6q0 26 16 44q18 20 47 22t49.5 -16.5t22.5 -46.5q2 -27 2 -54q45 45 100 82q68 43 155 61q52 10 102 10q35 0 69 -5q92 -14 164 -68.5t100 -150.5q15 -62 16 -120q1 -44 -9 -86q-20 -97 -82 -180t-137.5 -143.5t-159.5 -95.5q-99 -43 -312 -84v-92q0 -63 4 -219 q3 -100 3 -167q0 -34 -1 -59q0 -29 -20.5 -47t-49 -18t-47 20.5t-18.5 49.5q1 23 1 55q0 64 -3 162q-4 158 -4 223q0 772 -8 917zM227 692q172 35 256 70q152 66 243 199q64 93 64 186q0 40 -12 80q-29 104 -153 123q-28 4 -54 4q-96 0 -178 -51q-96 -61 -157 -185 q-4 -6 -9 -10q1 -82 1 -186t-1 -230z" />
<glyph unicode="Q" horiz-adv-x="1107" d="M72 653q-1 28 -1 55q0 232 76 425q98 246 285 319q8 2 19 6q16 10 34 10h31q6 0 15.5 1t14.5 1t7 3q5 1 10 1q23 0 43 -16q195 -43 314 -235q133 -211 135 -521v-10q0 -294 -119 -504q-12 -18 -23 -36q72 -70 172 -140q23 -16 28 -44q1 -6 1 -12q0 -20 -12 -38 q-17 -22 -44 -28q-7 -1 -14 -1q-19 0 -36 13q-105 73 -185 147q-109 -95 -245 -95q-15 0 -31 1q-225 16 -357 240q-109 186 -118 458zM207 659q10 -242 100 -397q94 -162 248 -172q12 -1 23 -1q84 0 153 58q-55 61 -110 142q-16 23 -11.5 50.5t27 43.5t50.5 11t44 -27 q45 -63 86 -113l2 2q101 178 101 441v5q-2 268 -115 449q-109 172 -283 182q-27 -2 -41 -8q-131 -51 -209 -242q-66 -168 -66 -373q0 -25 1 -51z" />
<glyph unicode="R" horiz-adv-x="1024" d="M82 1380v6q0 26 16 44q18 20 48 22h5q25 0 43 -16q20 -18 23 -47v-9l6 2q47 25 131 41q46 11 98 11q35 0 72 -5q94 -12 170 -51q88 -47 133 -129q29 -53 30 -118q0 -34 -9 -72q-37 -172 -180.5 -293t-327.5 -182q383 -326 661 -504q23 -16 29 -43q2 -8 2 -15 q0 -20 -11 -36q-15 -24 -42 -29.5t-51 8.5q-291 188 -703 539v-41q0 -63 4 -219q3 -100 3 -167q0 -34 -1 -59q0 -29 -20.5 -47t-49 -18t-47 20.5t-18.5 49.5q1 23 1 55q0 64 -3 162q-4 158 -4 223q0 772 -8 917zM223 1225q5 -137 5 -328q0 -96 -1 -205q176 43 316.5 147.5 t173.5 247.5q5 21 5 40q0 84 -91 130q-53 29 -123 37q-32 5 -61 5q-34 0 -64 -7q-70 -14 -98 -30q-12 -6 -35 -21z" />
<glyph unicode="S" horiz-adv-x="903" d="M94 424v5q0 23 16 43q18 22 46 24t49.5 -16.5t23.5 -47.5q6 -88 41 -166t92 -121q51 -37 117 -54q45 -12 88 -11q20 0 41 2q131 16 166 133q12 35 12 69.5t-8 67.5t-25.5 69t-39 67.5t-53 68.5t-62.5 70l-72 71l-39 39l-45 41l-36 39q-27 27 -41 43l-33 39q-20 23 -35 43 q-77 108 -77 207q0 45 16 88q29 78 91 133q62 56 137 78q42 12 86 12q35 0 72 -8q83 -18 146 -80q23 -23 41 -50.5t32.5 -62t22.5 -58t18.5 -60.5t12.5 -43q10 -27 -3 -51.5t-40 -33.5t-51.5 4t-32.5 40q-6 14 -16.5 50t-16.5 53.5t-16 43t-21.5 42t-23.5 28.5 q-52 51 -119 51q-27 0 -55 -8q-102 -27 -138 -125q-7 -19 -7 -41q0 -58 53 -129q12 -18 28.5 -37.5t28.5 -34.5l39 -39l33 -34l45 -43l39 -39l71 -70q27 -29 68 -76t64.5 -83t49.5 -87q28 -51 38 -96q10 -41 9 -90v-9q-1 -54 -16 -110q-31 -100 -107.5 -157.5t-172.5 -69.5 q-28 -3 -55 -3q-61 0 -124 15q-92 25 -161 76q-90 66 -136.5 171t-54.5 218z" />
<glyph unicode="T" horiz-adv-x="905" d="M10 1364q0 29 20.5 46t49.5 17q50 -1 110 -2q263 0 725 29h6q25 0 43 -16q20 -18 23 -46v-6q-1 -24 -17 -42q-18 -20 -46 -21q-250 -14 -369 -20q45 -651 45 -1094q0 -97 -2 -184q0 -25 -20.5 -44.5t-48 -19.5t-47 20.5t-19.5 47.5q2 89 2 188q0 438 -43 1081 q-114 -4 -216 -4q-68 0 -130 2q-29 0 -47.5 19.5t-18.5 48.5z" />
<glyph unicode="U" horiz-adv-x="944" d="M36 1194q1 166 1 180q0 27 19.5 47.5t47 20.5t48 -19.5t20.5 -48.5q0 -18 -1 -178v-63q0 -124 3 -229q4 -132 16 -257q23 -223 74 -366q55 -156 142 -201q40 -22 78 -22q58 0 110 51q80 80 125 235q45 144 63 330q16 166 15 308v32q-2 154 -17 348q-2 27 16.5 48.5 t46 23.5t49 -16.5t23.5 -47.5q14 -201 19 -354v-30q0 -148 -18 -326q-20 -198 -66 -357q-57 -186 -162 -291q-45 -44 -96 -68q-47 -22 -107 -22h-11q-66 2 -134 39q-129 70 -203 275q-55 156 -80 397q-12 125 -17 260q-4 112 -4 247v54z" />
<glyph unicode="V" horiz-adv-x="819" d="M35 1360q-2 8 -2 16q0 18 10 36q14 24 41 30q8 2 16 2q18 0 36 -10q26 -14 32 -41q45 -180 102 -512q68 -381 97 -506q43 -188 47 -201q8 -27 14 -49q10 27 18 61q14 47 30 116t16 71l77 311l97 389q39 160 71 313q6 27 30 42.5t51.5 9.5t43.5 -29q11 -16 10 -34 q0 -8 -2 -17q-33 -158 -71 -314l-97 -393l-77 -311q0 -2 -19 -72q-14 -66 -26 -114q-18 -72 -35 -113q-12 -29 -23 -47q-18 -33 -45 -45q-23 -12 -45 -12q-27 0 -53 18q-25 16 -45 53q-27 43 -49 127q-8 16 -52 211q-25 100 -96 512q-59 326 -102 502z" />
<glyph unicode="W" horiz-adv-x="1337" d="M39 1382q-1 5 -1 10q0 22 14 40q16 22 43.5 27t50 -11t28.5 -45l51 -322l66 -393l57 -321q2 -4 6 -31l11 -64q6 -39 14 -73l37 110q117 330 153 410q2 2 3 5t3.5 8t2.5 7q8 18 16 33q14 25 35 37q23 17 47 17q18 0 37 -9q27 -12 55 -53q16 -25 39 -68q37 -68 88 -184 l80 -184q49 -115 59 -135q8 51 17.5 125.5t9.5 82.5l72 451q57 362 84 561q5 27 27 45q18 14 38 13q6 -1 12 -1q28 -4 44 -26q14 -18 15 -41q0 -5 -1 -10q-29 -197 -86.5 -561.5t-69.5 -450.5q-2 -8 -11 -83t-18 -128q-12 -80 -20 -127q-8 -31 -14 -51q-4 -12 -9 -23 q-10 -20 -28 -32q-19 -11 -38 -11l-32 8q-8 4 -16 13q-4 4 -9 10q-2 4 -6 8l-10 21l-29 57l-45 92q-12 25 -59 135l-80 187q-51 113 -84 176l-4 8q-20 -45 -139 -377q-51 -143 -74 -201q-16 -43 -27 -67q-6 -14 -12 -25q-6 -8 -12 -14q-20 -23 -49 -23h-5q-30 0 -53 25 q-10 10 -18 26.5t-19 47.5q-12 45 -26 121q-8 37 -17 79l-12 74q-4 31 -4 35q-31 154 -59 322l-66 395q-37 229 -53 323z" />
<glyph unicode="X" horiz-adv-x="1089" d="M85 2q-3 10 -3 19q0 16 8 32l387 727l-332 598q-12 25 -5 51.5t32 40.5q16 9 33 8q9 0 19 -2q26 -8 40 -32l291 -522l270 508q12 25 39 34t51.5 -4.5t33.5 -40t-5 -51.5l-311 -588l420 -741q10 -18 10 -36q0 -7 -2 -15q-7 -26 -31 -42q-17 -10 -35 -10q-8 0 -16 2 q-27 6 -41 31l-383 670l-346 -651q-14 -25 -41 -32t-51.5 6t-31.5 40z" />
<glyph unicode="Y" horiz-adv-x="962" d="M85 1399q7 26 31.5 39.5t51.5 6.5t41 -32q156 -276 379 -731l108 268l205 484q12 27 38 38q13 5 25 5q13 0 26 -5q26 -12 37 -38q6 -13 6 -26q0 -12 -5 -24l-207 -485q-117 -279 -180 -487q-27 -86 -61 -213q-37 -139 -50 -189q-8 -27 -32 -40q-16 -8 -33 -8q-9 0 -19 2 q-26 7 -39.5 31.5t-7.5 51.5q14 49 51 189.5t60 216.5l16 49q-270 553 -436 846q-8 16 -8 32q0 9 3 19z" />
<glyph unicode="Z" horiz-adv-x="1091" d="M12 47q0 10 1 16.5t3 10.5v6q0 2 2 6l5 8q2 4 6 10l18 29l53 82q16 23 37 55l33 49q12 18 14 23q303 481 566 825l98 133l12 19q-96 0 -198.5 -6t-245.5 -23q-141 -14 -203 -18q-29 -2 -50.5 16.5t-23.5 46t16.5 49t45.5 23.5q47 4 209.5 20.5t275.5 22.5q68 4 132 4 q43 0 85 -2q2 0 12 2q27 4 31 4q12 2 23 2q16 0 28 -4q55 -18 58 -76l-6 -28q0 -2 -2 -6q0 -2 -3 -3l-2 -4l-2 -2l-6 -8l-18 -26l-60 -82l-100 -136q-258 -340 -557 -817q-2 -2 -14 -20l-35 -51l-37 -58l-20 -30h8q35 4 84 12q53 10 57 10q216 23 387 22q185 0 315 -26 q28 -3 44 -27q12 -18 12 -39q0 -7 -1 -13q-5 -28 -28.5 -43t-50.5 -9q-116 22 -283 22t-383 -22q-2 0 -7 -1t-17.5 -3t-20.5 -4q-55 -8 -94 -13q-41 -5 -71 -5q-15 0 -27 1q-31 2 -51 11q-45 20 -54 65z" />
<glyph unicode="[" horiz-adv-x="1576" d="M123 508q-59 174 33 274q80 86 233 78q113 -8 228.5 -67.5t193.5 -157.5q63 76 159.5 135t194.5 86q150 41 252 -10q129 -61 142 -234q8 -113 -95 -217q-76 -76 -213 -149q-96 -51 -237 -109l-150 -57q-35 -39 -82 -17q-10 5 -20 13q-33 16 -135 61q-143 63 -197 92 q-260 133 -307 279z" />
<glyph unicode="\" horiz-adv-x="897" d="M102.5 1428.5q10.5 25.5 37 37t52 1t35.5 -36.5q221 -516 678 -1352q14 -25 6 -51.5t-32.5 -41t-51.5 -6.5t-41 33q-459 842 -682 1364q-12 27 -1.5 52.5z" />
<glyph unicode="]" horiz-adv-x="1462" d="M70 768q2 133 24 231q14 55 35 93q31 55 80 67q59 14 151 -12q72 -20 162 -64q68 -33 135 -73q25 16 60 22q2 0 24 2q10 4 20.5 4t20.5 -2q72 84 138 146q84 78 155 116q100 55 178 33q45 -14 78 -65q23 -37 39 -92q31 -98 41 -232q12 -133 -2 -233q-8 -57 -25 -95 q-27 -59 -73 -75q-57 -20 -154 -4q-51 10 -115 30l113 -86q113 -86 180 -147q41 -37 64 -62q35 -39 41 -67q12 -57 -47 -133q-37 -47 -103 -105q-59 -51 -110 -84q-27 -16 -47 -26q-39 -18 -70 -11q-25 6 -45 29q-10 12 -23 29q-18 29 -41 78q-41 80 -94 215l-41 104v-68 q-2 -145 -8 -233q-4 -55 -10 -88q-4 -20 -8 -35q-10 -27 -29 -43q-18 -14 -43 -16q-12 -2 -27 0q-20 2 -49 8q-57 12 -121 39q-72 27 -118 59q-76 47 -84 103q-6 29 10 75q10 33 33 80q35 78 98 203l39 74q-72 -53 -133 -78q-104 -45 -181 -14q-45 18 -71 73q-18 37 -29 94 q-20 100 -18 236zM205 765q-2 -120 14 -206q8 -39 21 -61q2 -6 4 -9q25 -6 73 15q57 25 136 84q67 51 141 123q-8 25 -12 51q-8 68 8 131q-63 39 -127 70q-80 37 -139 55q-49 14 -74 12q-2 -2 -2 -4q-12 -20 -21 -59q-20 -82 -22 -202zM457 51q8 -8 20 -16q37 -25 96 -47 q54 -21 99 -31q2 20 4 49q6 86 8 225q0 127 -4 269l-96 -178q-63 -121 -97 -197l-28 -68q0 -4 -2 -6zM881 518q45 -129 104 -272q57 -139 90 -207q14 -29 25 -47l6 4q47 29 96 72q55 47 84 86q11 12 17 22l-5 2q-18 20 -53 53q-63 55 -172 142zM905 971q63 -86 41 -207 q0 -8 -2 -16l94 -39q82 -31 144 -41q49 -8 75 -4q2 2 3 4q10 20 14 59q12 86 3 205t-36 203q-12 39 -24 59q-4 4 -7 8q-25 2 -69 -22q-57 -31 -129 -97q-52 -49 -107 -112z" />
<glyph unicode="^" horiz-adv-x="692" d="M72 1143.5q-4 27.5 12 50.5q8 8 43 59l57 84q39 53 66 84q16 20 29 33q20 20 40 29q61 23 132 -37q37 -31 86 -92q68 -86 112 -168q12 -25 5 -51.5t-31.5 -40t-51 -6t-41.5 31.5q-41 76 -100 152q-39 49 -65 71l-3 3l-10 -11l-57 -75l-57 -84q-37 -53 -43 -64 q-18 -23 -46 -27t-50.5 13.5t-26.5 45z" />
<glyph unicode="_" horiz-adv-x="878" d="M33 -306.5q-2 27.5 15 50.5t46 25q121 12 347.5 45.5t326.5 46.5q29 2 50.5 -15.5t24.5 -45t-14.5 -49t-44.5 -25.5q-102 -10 -329.5 -45t-348.5 -48q-27 -2 -49 15.5t-24 45z" />
<glyph unicode="`" horiz-adv-x="348" d="M46 1575.5q7 26.5 31.5 39.5t51.5 6t41 -32q25 -45 82 -129q61 -90 88 -137q12 -23 5 -50.5t-30.5 -40.5t-51 -6t-42.5 31q-23 41 -82 128.5t-88 138.5q-12 25 -5 51.5z" />
<glyph unicode="a" d="M121 479q66 98 170 138q60 23 121 23q44 0 90 -12q108 -30 182 -122q12 -16 27 -39q-20 186 -58 297q-41 123 -94 145q-12 5 -25 5q-58 0 -153 -87q-20 -20 -48 -18t-47.5 22.5t-17 48.5t22.5 46q131 122 243 123q38 0 74 -15q113 -43 174 -225q16 -55 30.5 -119.5 t24 -134.5t14.5 -119t9 -114.5t6 -77.5q0 -4 15 -113q4 -41 6 -63q3 -25 3 -40q0 -8 -1 -14q-2 -10 -6 -18q-10 -27 -35 -37q-16 -8 -32 -8q-23 0 -44 18q-8 8 -14 20.5t-13 35.5l-8 28q-4 14 -6 19l-14 41q-133 -98 -250 -119q-44 -8 -86 -8q-62 0 -117 18q-94 31 -149 105 q-59 73 -59 172q0 101 65 198zM221 190q31 -39 89 -58q36 -12 78 -12q26 0 54 5q91 19 224 119q-57 139 -88 180q-65 80 -165 80h-9q-106 -4 -168 -98q-46 -69 -47 -127q1 -48 32 -89z" />
<glyph unicode="b" horiz-adv-x="761" d="M76 27q0 629 12 1319q0 27 20.5 46t48 19t47 -20.5t19.5 -49.5q-4 -227 -6 -446q94 96 201 100h6q84 0 152 -54q70 -56 116 -146q40 -81 58 -183q10 -59 11 -120q1 -42 -5 -86q-12 -104 -70.5 -202t-159.5 -159q-91 -56 -191 -56q-61 0 -126 21q-6 -23 -24.5 -37 t-41.5 -14q-29 0 -48 19.5t-19 48.5zM211 154q63 -30 121 -30q64 0 125 36q92 56 135 160q36 86 36 177q0 17 -2 35q-8 108 -55 201q-33 63 -72.5 95t-76.5 32q-105 -4 -209 -207q-2 -254 -2 -499z" />
<glyph unicode="c" horiz-adv-x="890" d="M94 299q-21 83 -21 172q0 111 33 231q43 147 129.5 241.5t190.5 98.5h13q109 0 177 -95q72 -101 89 -273q2 -29 -15.5 -50.5t-46.5 -23.5t-50.5 15.5t-23.5 46.5q-6 74 -23.5 127t-39 76.5t-39.5 33.5t-35 8q-47 -2 -104.5 -62.5t-89.5 -178.5q-30 -101 -30 -190 q0 -22 2 -44q9 -108 46 -186t92 -119q48 -33 100 -33q38 0 78 17q125 53 242 254q14 25 41 31.5t51 -6.5q25 -14 32 -40q3 -10 3 -19q0 -16 -8 -32q-137 -240 -307 -313q-68 -29 -132 -29q-93 0 -178 61q-129 94 -176 281z" />
<glyph unicode="d" horiz-adv-x="819" d="M88 299q-8 53 -8 107q0 137 49 284q74 219 209 285q47 23 94 23q38 0 78 -15q70 -27 135 -102q1 156 1 270.5t-1 187.5q0 29 19.5 49.5t47 20.5t48 -19.5t20.5 -46.5q2 -147 2 -219.5t-2 -220t-2 -221.5q0 -391 27 -651v-5q1 -24 -15 -44q-18 -22 -46 -24h-7 q-23 0 -41 14q-22 18 -26 46q-6 53 -11 111q-27 -31 -55 -57q-89 -82 -199 -82q-55 0 -114 20q-168 55 -203 289zM221 317q23 -150 111 -180q36 -12 69 -12q63 0 113 45q74 68 133 197q-4 113 -4 251v3q-63 123 -82 145q-51 72 -100 90q-15 6 -30 6q-17 0 -34 -8 q-84 -41 -139 -207q-43 -128 -43 -245q0 -43 6 -85z" />
<glyph unicode="e" d="M76 516q14 203 104 350q108 176 265 176h4q80 0 145 -57t111 -133q41 -72 55 -135q6 -30 6 -55v-13q-6 -47 -41 -74q-20 -14 -59 -22q-25 -4 -66 -8q-59 -4 -166 -6q-45 -1 -100.5 -1t-120.5 1l-4 -35q-2 -28 -2 -54q1 -138 53 -232q62 -112 182 -114h11q55 0 93 18 q42 20 107 83q14 14 30.5 34.5t29.5 36.5l28 50l27 43q16 25 44 29.5t51.5 -10.5t28.5 -44q1 -8 1 -15q0 -20 -10 -36q-4 -4 -27 -37l-33 -53q-14 -23 -36.5 -52.5t-43.5 -46.5q-78 -74 -143 -106q-61 -31 -151 -31h-11q-106 2 -183 54.5t-117 135.5t-55 173q-10 59 -10 120 q0 33 3 66zM242 680q53 -1 100.5 -1t89.5 1q105 2 158 6q12 2 37 4q-8 45 -39 96q-33 55 -72 88t-67 33q-86 0 -154 -110q-31 -51 -53 -117z" />
<glyph unicode="f" horiz-adv-x="749" d="M55 771q2 28 23.5 46.5t48.5 16.5q53 -4 96 -5q2 254 41 394q43 152 123 211q53 40 112 40q38 0 79 -16q80 -31 145 -119q68 -88 104 -196q5 -12 5 -24q0 -15 -7 -29q-12 -25 -38.5 -34t-52.5 3t-34 39q-31 90 -80 153.5t-94 81.5q-33 12 -57 -6q-43 -35 -74 -141 q-35 -121 -37 -355q80 4 172 15q29 2 50.5 -15.5t24.5 -45t-14.5 -49t-43.5 -25.5q-100 -10 -187 -15l5 -71q4 -106 17 -315.5t15 -291.5q0 -29 -18.5 -49t-47 -20t-49 18.5t-20.5 46.5q-2 82 -15.5 290t-17.5 314l-4 76q-53 0 -106 4q-29 2 -47 24q-17 19 -17 44v5z" />
<glyph unicode="g" horiz-adv-x="778" d="M68 552q8 101 41 189q35 94 96 162t147 86q26 6 52 6q101 0 204 -84q-2 29 -2 50q0 27 18.5 47t45.5 21h3q26 0 45 -17q21 -18 23 -47q2 -33 8.5 -149t11.5 -239.5t5 -234.5q0 -233 -12 -356q-18 -184 -68 -267q-66 -113 -213 -129q-27 -4 -55 -4q-81 0 -168 31 q-27 8 -39 33.5t-3 52.5t34.5 39t52.5 2q66 -22 125 -22q19 0 37 2q82 10 114.5 65t46.5 209l5 45q-80 -49 -161 -49q-66 0 -132 31q-100 47 -164 135t-84 190q-16 74 -16 148q0 27 2 54zM202 538q-1 -18 -1 -35q0 -64 13 -124q17 -76 61 -138.5t112 -93.5q37 -18 74 -18 q81 0 157 88q6 6 13 10v113q-2 154 -13 367q0 2 -2 4q-115 148 -211 148q-13 0 -26 -3q-41 -8 -80 -50t-66 -112q-27 -74 -31 -156z" />
<glyph unicode="h" horiz-adv-x="819" d="M55 1391q0 29 18.5 49t47.5 20t49 -18.5t20 -46.5q10 -332 15 -717l18 37q119 231 269 264q26 6 50 6q47 1 84 -23q56 -36 91 -104q51 -98 67 -285q6 -74 8 -164q1 -34 0 -63q0 -49 -2 -86q-2 -59 -6 -136t-4 -87q0 -29 -20.5 -47.5t-49 -18.5t-47 20.5t-18.5 49.5 q0 14 4 91q4 78 6 134q1 38 1 88v53q-1 85 -7 154q-14 160 -53 238q-25 50 -63 50q-6 0 -13 -1q-86 -20 -176 -195q-70 -135 -113 -297q-18 -70 -22 -147q2 -82 2 -170q0 -10 -1 -15.5t-3 -11.5q-2 -10 -10 -20q-21 -28 -50 -28q-14 0 -30 7q-23 10 -35 33q-2 4 -4 10 q0 4 -2 9v6v4v26q-2 37 -2 64q0 63 2 110q-2 532 -21 1158z" />
<glyph unicode="i" horiz-adv-x="272" d="M78 1276q0 29 19.5 48t48 19t48 -19t19.5 -48t-19.5 -48.5t-48 -19.5t-48 19.5t-19.5 48.5zM84 20q0 8 10 455q2 75 2 145q0 163 -10 300q-2 29 16 50t46 23h6q24 0 44 -16q22 -18 23 -45q10 -129 10 -303q0 -75 -2 -158q-10 -430 -10 -451q0 -29 -19.5 -48t-48 -19 t-48 19.5t-19.5 47.5z" />
<glyph unicode="j" horiz-adv-x="284" d="M-288 -290q9 26 34 39t51 3q66 -20 124 -20q19 0 38 2q78 10 111 63q33 55 47 205q11 99 11 244q0 41 -1 86q-2 154 -14 368q-14 225 -15 236q-2 27 17.5 47.5t47 22.5t48 -17.5t22.5 -48.5q0 -8 15 -235q12 -217 14 -371q1 -47 1 -90q0 -151 -11 -256q-18 -180 -68 -260 q-68 -111 -209 -127q-25 -3 -52 -3q-79 0 -167 27q-27 8 -40 33q-8 15 -8 30q0 11 4 22zM88 1276q0 29 19.5 48t48 19t48 -19t19.5 -48t-19.5 -48.5t-48 -19.5t-48 19.5t-19.5 48.5z" />
<glyph unicode="k" d="M72 31v95q0 190 5 544q4 245 4 429q0 158 -3 273q0 29 19.5 49.5t48 20.5t50 -18.5t21.5 -47.5q3 -127 3 -308.5t-3 -418.5l68 86l86 105l75 94q27 35 33 41q16 23 45 27t52.5 -13.5t27.5 -45t-16 -50.5q-4 -6 -33 -41l-76 -94l-88 -107l-119 -153l-28 -35q18 -16 55 -43 q76 -55 193 -129q229 -139 348 -193q25 -12 35 -38q4 -12 4 -24q-1 -14 -7 -28q-12 -24 -39.5 -34.5t-52.5 1.5q-125 57 -362 201q-127 78 -203 135l-4 4q-1 -79 -1 -150t1 -134q0 -27 -20.5 -47.5t-48 -20.5t-49 19.5t-21.5 48.5z" />
<glyph unicode="l" horiz-adv-x="264" d="M82 1380v6q0 26 16 44q18 20 48 22h5q25 0 43 -16q20 -18 23 -47q8 -150 8 -926q0 -63 4 -219q3 -100 3 -167q0 -34 -1 -59q0 -29 -20.5 -47t-49 -18t-47 20.5t-18.5 49.5q1 23 1 55q0 64 -3 162q-4 158 -4 223q0 772 -8 917z" />
<glyph unicode="m" horiz-adv-x="1286" d="M49 930v6q1 25 17 44q18 22 46 24h6q24 0 42 -16q22 -18 24 -46q2 -41 12.5 -133t14.5 -141q2 -20 2 -45q25 59 49 106q66 125 135 174q48 33 98 33h11q59 -6 108 -57q37 -39 64 -131q14 -53 29 -123q29 70 61 129q57 111 117 172q74 74 150 74q15 0 30 -3 q59 -10 100 -71q31 -43 52 -115q33 -113 45 -297q8 -94 10 -211q1 -78 1 -133v-49.5v-41.5q0 -40 1 -73q0 -29 -19.5 -49t-47 -20t-48 19t-20.5 46q-1 33 -1 72v41.5v48.5q0 54 -1 131q-2 115 -9 209q-14 174 -41 270q-16 51 -32 76q-4 8 -8 10l-5 4l-2 2h-2q-20 0 -57 -37 q-45 -45 -94 -139q-43 -78 -75 -164t-40 -127q-10 -59 -10 -229q0 -6 2 -27l4 -39q2 -27 0 -41q-2 -12 -8 -24q-20 -38 -58 -38q-7 0 -14 1q-27 4 -45 27q-4 6 -10 14l-6 20v7v8q-2 8 -2 24q-2 23 -4 66q0 16 -1.5 43t-2.5 41t-1 16q-12 150 -34 287q-16 92 -33 154 q-18 61 -32.5 75.5t-22.5 16.5q-6 0 -19 -8q-43 -29 -92 -127q-43 -82 -78 -182.5t-45 -147.5q-14 -76 -22 -186q-2 -10 2 -60q2 -25 2 -29v-6v-4q0 -10 -4 -20q-12 -31 -48 -41q-11 -3 -20 -3q-29 0 -49 27l-12 21q0 4 -1.5 7t-1.5 7q-23 117 -25.5 343t-4.5 267 q-4 49 -13 140z" />
<glyph unicode="n" horiz-adv-x="905" d="M45 952q-2 8 -2 15q-1 19 11 35q16 24 44 29q7 1 13 1q19 0 37 -11q24 -15 28 -44q29 -139 33 -352q35 63 74 118q90 133 182 195q72 48 139 48q53 0 103 -30q74 -43 116 -186q33 -104 51 -266q24 -206 24 -412q0 -31 -1 -61q0 -27 -20.5 -46.5t-48 -19.5t-47 20.5 t-19.5 49.5q1 28 1 57q0 192 -24 395q-16 154 -45 242q-29 94 -57 113q-14 8 -31 8q-29 0 -67 -25q-68 -45 -146 -159q-68 -100 -119 -211q-51 -113 -57 -166q-6 -37 -8 -105q-4 -84 -6 -116q0 -4 -2 -9v-4q0 -8 -4 -16q-6 -10 -15 -19q-20 -21 -44 -21q-9 0 -19 3 q-29 6 -43 31q-4 8 -6 16l-2 14q-2 2 -2 8.5t2 28.5q2 68 2 74q0 27 3 114t3 136v88q0 70 -1 94.5t-3 84t-5.5 93t-8.5 80.5t-13 88z" />
<glyph unicode="o" horiz-adv-x="827" d="M64 420q-1 19 -1 38q0 65 15 124q31 174 119 295q106 141 249 149h3q15 7 29 7q12 0 24 -5q26 -10 51 -22q14 -4 25 -15q86 -49 142 -126t78.5 -162t25.5 -177v-20q0 -81 -21 -154q-49 -203 -182 -307q-91 -73 -190 -73q-74 0 -152 40q-72 35 -122.5 101.5t-68.5 143.5 t-24 163zM209 557q-10 -60 -11 -116q0 -78 21 -147q35 -118 121 -163q44 -22 86 -22q58 0 111 43q96 76 135 233q17 71 17 139q0 77 -22 150q-42 137 -163 205l-31 8q-12 4 -18 4q-80 -4 -148 -96q-72 -94 -98 -238z" />
<glyph unicode="p" horiz-adv-x="755" d="M41 946q-1 5 -1 11q0 22 14 41q18 22 46 26q5 1 10 1q21 0 40 -15q22 -17 26 -43l12 -101q90 121 203 133q14 2 28 2q72 0 134 -45q74 -53 123 -139q47 -82 68 -183q15 -76 15 -154q0 -26 -2 -53q-7 -105 -63.5 -203.5t-156.5 -160.5q-53 -33 -113 -48q-55 -14 -104 -14 h-6q-52 1 -109 3q3 -131 3 -224q0 -46 -1 -83q0 -27 -20.5 -46.5t-48 -19.5t-47 20.5t-19.5 49.5q1 44 1 104q0 89 -2 213q-3 205 -3 295q0 117 1 215v20q0 90 -8 189q-6 104 -20 209zM203 139q43 -4 81 -4q33 0 64 3q64 7 119 40q90 55 129 158q30 79 30 161q0 26 -4 53 q-12 109 -63 200q-35 63 -76 90q-36 25 -68 25q-4 0 -9 -1q-43 -4 -95.5 -60t-103.5 -183l-4 -9q1 -44 1 -119t-1 -180v-174z" />
<glyph unicode="q" horiz-adv-x="796" d="M74 328q-3 26 -3 53q0 119 51 257q62 169 163 271q101 103 204 103q28 0 56 -8q57 -16 106 -66v41q0 27 20.5 46t48.5 19t47 -20t19 -49q0 -41 -6 -300t-6 -355.5t2 -284t12 -336.5v-6q0 -25 -16 -43q-18 -21 -47 -23h-6q-25 0 -43 17q-21 18 -23 47q-12 201 -14 446 q-31 -37 -66 -63q-84 -66 -174 -74q-13 -1 -26 -1q-74 0 -135 40q-68 43 -111 120t-53 169zM209 344q6 -68 33.5 -118t66.5 -72q33 -20 68 -20q54 0 115 46q80 63 145 238q2 4 4 6q0 100 4 248q-2 6 -4 10q-59 170 -133 190q-10 3 -20 3q-46 0 -107 -60q-80 -84 -132 -224 q-42 -114 -42 -206q0 -21 2 -41z" />
<glyph unicode="r" horiz-adv-x="704" d="M45 911q-2 8 -2 15q-1 20 11 36q16 24 43.5 28.5t51 -10.5t27.5 -44q27 -127 33 -295q33 47 72 92q168 195 356 273q14 6 27 6q14 0 26 -6q26 -12 36 -36q6 -13 6 -26q0 -14 -6 -26q-11 -26 -36 -35q-160 -68 -307 -238q-156 -180 -170 -336q-2 -10 -2 -18v-176 q0 -29 -2 -70v-27v-2v-2q0 -2 -1 -5t-1 -7l-4 -12q-8 -23 -33 -33q-13 -8 -25 -8q-7 0 -15 3q-20 7 -29 13t-15 14.5t-10 20.5q0 4 -2 10v15q0 25 -1 73.5t-1 71.5q0 72 4 125v39v84v88q0 18 -1 77.5t-3 88t-5.5 76t-9.5 86.5z" />
<glyph unicode="s" horiz-adv-x="716" d="M60 294q10 25 35.5 37.5t51 2.5t37.5 -35q33 -74 66 -118t84 -72q41 -23 90 -25h9q44 0 81 18q72 33 72 104q0 12 -2 25q-6 47 -47 96.5t-119 116.5q-6 6 -35 30t-41 34l-37 35q-25 23 -37 39l-32 36q-16 23 -28.5 43.5t-19.5 40.5q-16 46 -16 89q0 27 6 51q15 66 62 112 q46 44 112 62q34 9 69 9q32 0 64 -7q27 -6 50.5 -16.5t46 -25.5t34.5 -26l33 -30l25 -25q20 -18 22 -46t-17.5 -48.5t-47 -22t-47.5 18.5q-10 8 -31 26.5t-27 24.5t-20 16t-24.5 14.5t-24.5 8.5q-20 4 -38 4q-50 0 -83 -33q-29 -28 -30 -66q0 -20 9 -44q12 -35 49 -73 t117 -106q16 -14 25 -22q57 -49 92 -83t74 -94.5t47 -117.5q3 -21 3 -41q0 -69 -33 -125q-42 -72 -118 -106q-64 -31 -141 -31h-10q-82 2 -152 41q-76 43 -123 104q-45 59 -84 148q-6 14 -6 28q0 12 5 24z" />
<glyph unicode="t" horiz-adv-x="761" d="M-37 1088q2 28 22.5 47.5t49.5 17.5q90 -4 192 -4q8 98 23 252q2 29 24 46q20 15 45 15h5q28 -2 45.5 -24.5t15.5 -48.5q-14 -141 -23 -236q68 4 160 10q27 2 48.5 -16.5t23.5 -46t-16.5 -48t-47.5 -22.5q-102 -6 -178 -10q-17 -241 -18 -427q0 -234 28 -382 q14 -68 39 -97.5t45 -31.5q2 0 4 -1q24 1 56 25q35 26 69 89q39 25 78 221q8 27 33 40t51.5 4t40.5 -34q7 -14 7 -28q0 -11 -5 -23q-35 -156 -86 -242q-48 -90 -116 -140q-61 -45 -128 -45q-8 0 -16 1q-80 8 -132 72.5t-71 166.5q-32 158 -32 407q0 185 18 421 q-100 0 -190 4q-27 2 -47 22q-18 18 -17 41v5z" />
<glyph unicode="u" horiz-adv-x="876" d="M59 584q4 100 8.5 154.5t11.5 133t9 95.5q2 27 24 45q20 16 45 16h5q28 -2 47.5 -23.5t17.5 -50.5q-2 -20 -9 -98t-11 -129t-8 -145q-2 -38 -2 -70q0 -48 4 -82q8 -160 51 -244q43 -80 117 -82q43 0 86 52q47 53 86 159q55 139 90 361q10 57 24 166l9 63q2 14 2 19.5 t1 8.5t1 5l4 12q4 8 10 15q23 25 57 22q35 -2 54 -31q4 -8 8 -18q2 -6 2 -12v-6q0 -494 71 -859q2 -8 2 -15q0 -18 -11 -35q-15 -23 -43.5 -28.5t-52.5 10t-28 44.5q-31 143 -47 295q-10 -33 -22 -64q-49 -127 -109 -198q-85 -101 -196 -101h-2q-156 4 -236 158 q-57 109 -68 295q-4 37 -4 87q0 35 2 75z" />
<glyph unicode="v" horiz-adv-x="819" d="M25 934q-2 7 -2 14q0 18 12 36q17 24 43 29q6 1 12 1q20 0 38 -12q24 -16 28 -44q61 -330 100 -483q41 -156 82 -254q49 -117 63 -131q14 10 33 45q20 37 55 131q143 391 213 697q6 29 30 43q17 10 35 10q9 0 17 -2q28 -6 42 -30q10 -17 10 -34q0 -8 -2 -16 q-74 -319 -218 -713q-39 -106 -63 -151q-33 -59 -72 -88q-37 -27 -73 -27q-34 0 -68 24q-68 50 -127 189q-45 109 -88 272q-41 160 -100 494z" />
<glyph unicode="w" horiz-adv-x="1181" d="M18 942q-1 5 -1 11q1 23 15 41q18 22 44 26q5 1 11 1q22 0 40 -14q23 -17 27 -44q20 -145 106 -537l51 -227q18 41 49 114l74 179q37 96 49 116q0 2 4 13q6 23 11 30q10 27 24 43q27 27 60 27q13 0 26 -4q20 -8 35 -27q6 -6 10 -14q6 -10 13 -27l24 -67l68 -199 q47 -127 78 -197q10 -20 18 -34q4 14 10 38l21 78q117 446 166 682q4 27 27.5 42.5t51.5 9.5q26 -4 42 -28q11 -17 12 -37q0 -7 -2 -15q-61 -303 -166 -691l-21 -75q-14 -51 -22 -76q-16 -45 -41 -68q-31 -31 -68 -31q-18 0 -37 7q-37 12 -69 59q-20 31 -43 82 q-37 74 -84 209l-53 154l-19 -50l-74 -180q-47 -111 -77 -172q-20 -41 -37 -63q-10 -14 -21 -25q-20 -23 -47 -27q-5 -1 -9 -1q-31 0 -56 24q-8 8 -17 20l-8 13q-4 6 -6 11t-6 17q-2 8 -6 17q-25 63 -39 129l-50 233l-8 43q-2 6 -2 8v9q0 6 2 12q0 6 2 12q-59 264 -82 420z " />
<glyph unicode="x" horiz-adv-x="737" d="M74 28q-5 12 -5 24q0 14 7 28q96 215 221 438l-205 406q-14 25 -5 51t33.5 39.5t51.5 4.5t39 -34l168 -328l213 340q16 25 44 30q7 1 13 1q21 0 39 -12q24 -16 28 -42q1 -7 1 -15q0 -19 -10 -35q-147 -223 -256 -412q125 -262 208 -477q10 -27 -1 -53q-12 -25 -38 -35 q-13 -5 -25 -5q-15 0 -27 6q-26 11 -36 38q-67 178 -163 383q-94 -174 -170 -342q-10 -27 -37 -37t-52.5 1t-35.5 37z" />
<glyph unicode="y" horiz-adv-x="751" d="M78 989q2 29 24 47q19 15 44 15h6q28 -2 45.5 -23.5t15.5 -50.5q-13 -139 -13 -272t13 -259q18 -174 61 -260q20 -37 43 -51q18 -10 43 -4l2 4q4 2 15.5 17.5t23.5 37.5q33 63 70 175q55 170 84 325q18 104 23 164q0 10 2 70v30q0 6 2 11q0 8 8 22q16 29 49 33h9 q31 0 52 -25l13 -24q2 -4 3 -8.5t1 -8.5q10 -98 10 -247v-121q0 -113 2 -119q10 -459 29 -813v-5q0 -26 -18 -45q-19 -20 -46 -22h-6q-24 0 -42 18q-21 19 -23 46q-14 305 -25 671q-39 -117 -78 -190q-57 -109 -127 -127q-27 -7 -52 -7q-50 0 -93 27q-55 33 -92 105 q-55 106 -76 307q-15 139 -15 283q0 135 13 274z" />
<glyph unicode="z" horiz-adv-x="876" d="M61 55q2 8 7 17q2 6 7 12t13 18l43 54q70 88 109 149l239 369l133 217q-43 -6 -45 -8q-37 -4 -73.5 -7.5t-79.5 -3.5h-70l-78 5q-51 2 -65 2q-29 0 -47.5 20.5t-18.5 49t20.5 47t49.5 18.5q18 0 69.5 -2t75 -3t63.5 -1t71.5 3t62.5 7q4 0 18.5 2t35 6t36.5 6q35 6 57 8 q16 2 26.5 2t18.5 -2q31 -6 45 -32q14 -23 11 -50q-2 -10 -7 -20q-4 -12 -12 -31l-45 -80l-139 -225l-238 -371q-37 -55 -90 -125q61 2 174 7q302 14 368 14h13q29 0 47.5 -20.5t18.5 -49t-20.5 -47t-49.5 -18.5q-12 0 -371 -15q-147 -6 -217 -8h-71h-27q-6 2 -12 2 q-20 2 -39 21q-19 20 -19 46q0 8 2 17z" />
<glyph unicode="{" horiz-adv-x="755" d="M33 659q10 25 33 39q16 12 47 19q2 0 28 2l11 2l38 14q25 8 38.5 12.5t27.5 10.5t27 14q37 23 39 72q0 31 -25 100q-35 100 -41 139q-12 111 34 221.5t141 186.5t212 78q29 0 49.5 -18.5t20.5 -47t-18.5 -49t-47.5 -20.5q-111 -2 -190.5 -107.5t-65.5 -226.5 q2 -27 33 -111q35 -92 33 -149q-4 -121 -103 -183q-23 -14 -53 -26q86 -68 107 -185q10 -68 -15 -186l-22 -92l-23 -98q-20 -102 -11 -157.5t48 -80.5q63 -37 203 14q25 10 50.5 -2t35.5 -37.5t-2.5 -51t-38.5 -36.5q-197 -74 -318 -2q-51 29 -78.5 75t-32.5 101.5t-2 100.5 t15 100q6 37 23 103l20 92q20 94 12 137q-12 84 -90 117q-27 12 -59 16q-10 0 -21 2h-4h-2h-6q-4 0 -8 2l-12 4q-25 12 -35 37q-10 29 -2 55z" />
<glyph unicode="|" horiz-adv-x="1638" d="M65 909.5q5 24.5 25 38.5q4 4 10 6l277 314l4 4q20 20 49 20q135 0 407.5 -4t407.5 -4q27 0 47 -18q8 -6 13 -13l294 -333q6 -8 11 -17q20 -37 -4 -69q-96 -147 -226.5 -310.5t-228.5 -273.5l-254 -283q-18 -20 -46 -22t-48 18q-6 4 -10 8q-2 4 -7 6q-63 63 -131 140 l-118 133q-49 57 -123 151l-107 144l-114 155l-107 144q-10 8 -14 18q-12 23 -7 47.5zM270 819q318 -430 488 -616q-84 248 -266 614q-119 2 -222 2zM281 954q96 0 206 -2q58 68 144 203q-94 2 -170 2zM643 817q141 -289 217 -502l90 197q125 266 142 301q-82 0 -232.5 2 t-216.5 2zM657 952q61 0 199.5 -2t212.5 -2l-43 72q-47 82 -82 131q-8 0 -153 2zM989 270q270 305 438 541h-192q-2 -8 -6 -18q-31 -72 -158 -340zM1106 1149l37 -62l84 -139q90 -2 168 -2l-176 203h-113z" />
<glyph unicode="}" horiz-adv-x="819" d="M63.5 1441.5q10.5 26.5 34.5 39.5q188 88 314 30q98 -47 127 -165q18 -78 4 -203q-4 -39 -15 -105l-14 -94q-12 -96 -2 -137q20 -84 100 -109q27 -8 62 -10h22q8 -2 13 -2q8 0 14 -2q29 -6 43 -37q16 -37 -2 -72q-12 -23 -39 -32q-14 -8 -51 -17q-74 -20 -119 -47 q-43 -27 -51 -41q-6 -12 -4 -51q2 -31 32 -98q43 -96 52 -137q23 -109 -14.5 -222.5t-126.5 -196.5t-205 -95q-27 -2 -48.5 15t-24.5 45t14 49.5t46 25.5q106 10 178 121.5t50 232.5q-6 27 -43 104q-41 90 -45 148q-4 80 20 125q27 47 100 90l15 8q-92 57 -119 172 q-16 66 0 189q2 25 12 90q10 63 15 104q12 104 0 160q-14 53 -54 72q-68 31 -198 -31q-25 -12 -51.5 -2t-39 34.5t-2 51z" />
<glyph unicode="~" horiz-adv-x="903" d="M68 1159q35 100 83 154.5t115 52.5q49 0 107 -37q20 -14 82 -61q88 -70 135 -70q76 -2 166 133q14 25 41.5 30t51 -10.5t29 -43t-11.5 -50.5q-129 -197 -276 -194q-92 0 -219 98q-55 43 -72 53q-25 16 -35 17q-35 -18 -69 -117q-10 -27 -35 -39t-51.5 -2t-38.5 34.5 t-2 51.5z" />
<glyph unicode="&#xa1;" horiz-adv-x="204" d="M41 1366q0 29 19.5 48.5t48 19.5t48 -19.5t19.5 -48.5t-19.5 -48.5t-48 -19.5t-48 19.5t-19.5 48.5zM43 1186q-2 27 16.5 48t46 23.5t49 -16t23.5 -47.5q6 -111 11.5 -226.5t6.5 -249.5t2 -221t0 -250t-1 -229q0 -29 -19.5 -48t-48.5 -19t-48.5 19.5t-19.5 47.5 q0 68 1 226.5t0 247t-2 220.5t-5 246.5t-12 227.5z" />
<glyph unicode="&#xa2;" horiz-adv-x="692" d="M53 384q-16 191 37 357q49 160 129 215q92 66 189 0q70 -47 114.5 -146t50.5 -206q2 -29 -17 -49t-47 -22.5t-48.5 17t-22.5 46.5q-4 82 -35.5 152.5t-68.5 95.5q-20 14 -37 2q-43 -31 -80 -146q-43 -147 -29.5 -304.5t70.5 -245.5q45 -68 98 -52q92 31 207 234 q14 25 41 32t51.5 -6.5t31.5 -40t-5 -51.5q-141 -250 -285 -297q-78 -25 -142.5 7t-109.5 100q-76 117 -92 308zM236 1106q0 29 19 48.5t48 19.5t48.5 -19.5t19.5 -48.5t-19.5 -48.5t-48.5 -19.5t-48 19.5t-19 48.5zM348 -161.5q0 28.5 19.5 48t48 19.5t48 -19.5t19.5 -48 t-19.5 -48t-48 -19.5t-48 19.5t-19.5 48z" />
<glyph unicode="&#xa3;" horiz-adv-x="1134" d="M72 631.5q-4 27.5 13 50.5t46 27q96 12 184 20q10 78 21 148q27 176 53 290q35 150 72 199q51 63 119.5 92t136 18.5t123.5 -51.5q86 -63 108.5 -172.5t-37.5 -240.5q-12 -27 -38.5 -36t-52 3t-35 38.5t2.5 51.5q29 59 30 110.5t-15.5 84t-44.5 53.5q-35 33 -91.5 25.5 t-99.5 -62.5q-18 -23 -47 -143q-25 -109 -51 -279q-8 -57 -16 -121q113 4 217 0q29 -2 48 -22.5t17 -48t-22.5 -47t-46.5 -17.5q-113 4 -230 -2q-14 -98 -24 -215q-10 -109 -37 -227q35 6 76 6q51 0 105 -9.5t128 -30t88 -22.5q154 -35 250 21q25 14 52.5 7t40.5 -30.5 t6 -51.5t-29 -40q-143 -86 -351 -37q-31 6 -96 24.5t-108 26t-86 7.5q-49 0 -86 -11q-2 -2 -8.5 -7t-8.5 -7q-18 -18 -37 -27q-51 -20 -88 19q-49 47 -8 119q10 20 16 24v2q33 131 45 256q8 86 23 195q-74 -8 -152 -19q-27 -4 -49 13.5t-26 45z" />
<glyph unicode="&#xa4;" horiz-adv-x="1120" d="M100 239.5q-2 28.5 17 49.5l114 131h2q-59 82 -75 186q-16 106 8 203q29 115 98 209q-4 4 -10 8l-115 119q-20 18 -20 47t19.5 48.5t48 19.5t46.5 -21l119 -119q4 -4 6 -8q125 94 285 90q39 -2 57 -37q88 -35 158 -86q4 4 8 6l119 125q18 20 47 20.5t49.5 -18t20.5 -47 t-19 -49.5l-122 -125l-5 -4q82 -98 106.5 -218t-7.5 -224q-23 -76 -68 -137q51 -51 113 -107q20 -18 22 -47t-16.5 -49.5t-47 -22.5t-48.5 17q-59 53 -119 114q-190 -133 -451 -43q-61 20 -110 56l-111 -127q-18 -20 -47 -22.5t-49.5 16t-22.5 47zM299 778 q-31 -127 17.5 -232.5t168.5 -148.5q168 -57 286 2.5t155 182.5q20 55 11 121.5t-38 128t-94.5 118t-159.5 92.5q-19 9 -31 25q-117 -6 -201.5 -88t-113.5 -201z" />
<glyph unicode="&#xa5;" horiz-adv-x="1114" d="M94 686q-6 27 8.5 51.5t40.5 30.5q123 33 226 55l-215 574q-10 25 2 50.5t37.5 35.5t51 -2.5t36.5 -38.5l221 -590q125 27 237 43q113 315 219 551q10 27 37 37t52.5 -1.5t36 -38t-2.5 -50.5q-94 -213 -190 -482q82 8 162 13q27 2 47 -17.5t22 -47.5t-17.5 -48t-47.5 -23 q-104 -4 -217 -18l-41 -119q-25 -76 -58 -149l-2 -6q92 8 219 18q27 2 48.5 -16.5t23.5 -46t-16.5 -49t-46.5 -23.5q-174 -12 -295 -27q-2 -90 -6 -303q0 -27 -20.5 -46t-48.5 -19t-47.5 20.5t-19.5 48.5q5 199 7 283q-158 -23 -306 -51q-29 -6 -52 9t-28.5 43t10 51.5 t42.5 27.5q147 31 301 51l-8 22q-45 111 -58 144l-22 63q-106 -25 -240 -59q-27 -6 -51.5 8t-30.5 41zM549 723l16 -41q6 -20 51 -127q29 68 56 141l18 54q-68 -10 -141 -27z" />
<glyph unicode="&#xa6;" horiz-adv-x="274" d="M74 821q41 174 10 373q-4 27 12.5 50.5t44 27.5t51 -12.5t27.5 -45.5q33 -223 -14 -426q-6 -27 -29.5 -41t-51.5 -8t-42 30t-8 52zM96 61q27 137 15 349q-2 29 16 49t47 22t49.5 -16t22.5 -47q12 -229 -19 -381q-4 -29 -27.5 -44.5t-51 -10t-43 29t-9.5 49.5z" />
<glyph unicode="&#xa7;" horiz-adv-x="677" d="M74 1145q-25 82 9 158.5t99 121.5q45 29 95.5 39.5t105.5 -9t96 -71.5q37 -47 58 -133q6 -25 13 -67.5t7 -46.5q6 -27 -9.5 -50.5t-43 -28.5t-51 10t-27.5 44q-2 4 -8 43l-12 66q-14 55 -33 77q-47 59 -115 15q-33 -23 -48 -59.5t-5 -71.5q12 -43 53 -82t119 -96 q84 -59 110 -82q6 -4 11 -9q80 -70 102 -139q33 -96 8.5 -169t-98.5 -105q-23 -12 -49 -17q172 -141 172 -282q0 -84 -40 -145.5t-108 -88.5q-63 -25 -134.5 -10.5t-133.5 61.5q-16 14 -33.5 33t-35 39.5t-21.5 26.5q-18 20 -17 48t21.5 46t48 17t45.5 -21q12 -12 37 -41 t41 -41q70 -55 135 -31q59 23 60 107q0 51 -39 97t-125 112q-102 80 -139 120q-76 84 -78 175q0 57 28.5 111t77.5 89q14 12 31 21q-147 111 -180 219zM252 705q0 -29 27 -64q10 -2 18 -6q92 -43 156 -12q20 8 26 26q10 29 -6 80q-8 20 -24 43q-3 0 -5 2q-8 8 -18 21l-14 14 l-4 2l-7 6q-47 18 -98 -20.5t-51 -91.5z" />
<glyph unicode="&#xa8;" horiz-adv-x="487" d="M86 1347.5q0 28.5 19.5 48t48 19.5t48 -19.5t19.5 -48t-19.5 -48t-48 -19.5t-48 19.5t-19.5 48zM330 1347.5q0 28.5 19.5 48t48 19.5t48 -19.5t19.5 -48t-19.5 -48t-48 -19.5t-48 19.5t-19.5 48z" />
<glyph unicode="&#xa9;" horiz-adv-x="1058" d="M84 653q-10 264 76 480q98 246 284 319q8 2 19 6q16 10 35 10h30q6 0 15.5 1t14.5 1t7 3q28 3 53 -15q195 -43 314 -235q133 -211 135 -521q2 -301 -119 -514q-66 -115 -165 -178t-224 -55q-225 16 -356 240q-109 186 -119 458zM219 659q10 -242 100 -397 q94 -162 248 -172q162 -12 264 166q102 180 101 446q-2 268 -115 449q-108 172 -282 182q-27 -2 -41 -8q-131 -51 -209 -242q-74 -188 -66 -424zM281 673q-2 150 55 271q47 94 117.5 138t150.5 20q70 -18 117 -85t61 -155q6 -29 -10 -51.5t-44 -27.5t-50.5 11.5t-26.5 43.5 q-12 59 -36.5 94t-49.5 41q-55 16 -106 -90q-45 -90 -43 -209t43 -197q35 -66 80 -65q66 0 157 114q18 20 46 23.5t49.5 -14t24.5 -45t-13 -50.5q-135 -164 -264 -164q-125 -2 -199 138q-57 109 -59 259z" />
<glyph unicode="&#xaa;" horiz-adv-x="614" d="M43 893q-16 109 53 221q70 115 180 150q68 20 134 2q-6 31 -15 51q-12 31 -28 33q-35 6 -117 -45q-25 -14 -52.5 -8t-42 29.5t-8.5 51t29 41.5q125 78 213 66q90 -16 131 -115q23 -55 37 -162q16 -143 16 -151q8 -41 31 -137q25 -104 31 -146q4 -27 -12.5 -50.5 t-44 -27.5t-51 12.5t-27.5 45.5q-4 37 -15 80q-16 -23 -30 -35q-61 -55 -103 -72q-66 -29 -145 -8q-70 16 -112 63t-52 111zM176 913q8 -49 64 -63q37 -8 59 0q20 10 66 51q16 14 81 109q-4 12 -4 22q-6 29 -10 74q-57 45 -115 29q-63 -20 -106 -93q-43 -70 -35 -129z" />
<glyph unicode="&#xab;" horiz-adv-x="897" d="M90 598q10 35 66 96q33 39 100 109q158 162 174 186q18 23 46 27t50.5 -13.5t26.5 -45t-12 -50.5q-27 -33 -189 -198l-96 -103q-27 -33 -37 -49q2 -14 10 -29q16 -33 105 -129l133 -141q20 -20 18 -48t-22.5 -47.5t-48 -17.5t-45.5 23l-136 139q-100 111 -127 164 q-35 74 -16 127zM367 551q2 18 14 37l14 18l37 43l111 119q168 176 180 193q16 23 44 26.5t50.5 -14t26 -44.5t-14.5 -50q-6 -8 -188 -205l-106 -115l-17 -18l10 -11q37 -39 103 -98q135 -121 184 -158q23 -16 28 -43.5t-11.5 -50t-44 -28t-50.5 11.5q-59 43 -196 168 q-70 63 -111 104q-25 27 -37 43q-10 12 -16 23q-12 25 -10 49z" />
<glyph unicode="&#xac;" horiz-adv-x="942" d="M78 624.5q-2 28.5 16 49t47 22.5q88 6 269 35q195 31 280 39q8 0 21 2q2 2 11 4t15 2q43 8 76 4q84 -14 115 -80q8 -18 14 -59q4 -29 6 -70q2 -16 8 -116q2 -29 -16 -49.5t-47 -22.5t-49.5 16.5t-22.5 47.5q-6 100 -8 114q-2 39 -6 62q-2 14 -2 18q-4 4 -12 4 q-10 2 -31 -2q-4 0 -13.5 -2t-13.5 -2q-18 -4 -33 -6q-72 -8 -270 -39q-180 -29 -282 -35q-29 -2 -49.5 16.5t-22.5 47z" />
<glyph unicode="&#xad;" horiz-adv-x="671" d="M61 660.5q2 27.5 22.5 47t47.5 17.5q190 -8 412 16q29 2 50 -15t24.5 -45t-14 -49.5t-44.5 -25.5q-233 -25 -432 -16q-29 2 -48.5 22.5t-17.5 48z" />
<glyph unicode="&#xae;" horiz-adv-x="1073" d="M98 653q-10 264 76 480q98 246 285 319q8 2 18 6q16 10 35 10h31q6 0 15 1t14.5 1t7.5 3q28 3 53 -15q195 -43 313 -235q133 -211 135 -521q2 -301 -118 -514q-66 -115 -165.5 -178t-224.5 -55q-225 16 -356 240q-109 186 -119 458zM233 659q10 -242 101 -397 q94 -162 248 -172q162 -12 264 166q102 180 100 446q-2 268 -115 449q-108 172 -282 182q-27 -2 -41 -8q-131 -51 -209 -242q-74 -188 -66 -424zM324 997q0 29 18 49.5t47 20.5h10q51 57 117 78.5t126 4.5t101 -67q39 -43 45.5 -100t-24.5 -119q-45 -84 -168 -145 q119 -115 201 -184q23 -18 24.5 -46t-17 -49.5t-46 -23.5t-47.5 16q-86 72 -224 205q8 -100 9 -176q0 -29 -19.5 -48.5t-48.5 -19.5t-48.5 19.5t-19.5 48.5q0 92 -16 264q-18 193 -20 272zM463 918q4 -43 8 -103h6q133 49 168 115q20 37 -4 65q-10 12 -29.5 19.5t-44 5.5 t-52.5 -26.5t-48 -69.5q-2 -4 -4 -6z" />
<glyph unicode="&#xaf;" horiz-adv-x="903" d="M88 1341.5q0 28.5 19.5 48t48.5 19.5q74 0 160.5 9t149 19.5t167.5 28.5l160 29q27 4 49 -12.5t27 -44t-11 -50t-45 -28.5q-51 -8 -156 -27l-168 -30q-68 -10 -162 -19.5t-171 -9.5q-29 0 -48.5 19.5t-19.5 48z" />
<glyph unicode="&#xb0;" horiz-adv-x="634" d="M78 1097.5q14 123.5 72 225.5q66 121 161 156q123 43 236 -62q24 -22 22 -55q51 -90 60.5 -190.5t-17 -181.5t-80.5 -142q-92 -111 -208 -115q-135 -2 -213 141q-47 100 -33 223.5zM213 1082q-10 -95 16 -142q39 -72 93 -72q55 2 106 66q39 45 57.5 105.5t7 137 t-58.5 146.5q-6 8 -10 18q-35 20 -66 11q-49 -18 -90 -95q-45 -80 -55 -175z" />
<glyph unicode="&#xb1;" horiz-adv-x="737" d="M79 771q-5 28 10 51.5t44 27.5l152 33q-10 86 -11 178q0 29 19.5 48t48.5 19t48.5 -19t19.5 -48q0 -78 8 -148l178 41q27 6 50.5 -8t29.5 -41.5t-8.5 -51.5t-42.5 -30l-183 -43q16 -66 41 -145q10 -27 -3 -51.5t-39.5 -33.5t-51 4t-33.5 40q-29 84 -45 156 q-84 -18 -153 -31q-27 -6 -50.5 9t-28.5 43zM99.5 319.5q-9.5 26.5 3.5 51t40 32.5l54 19l57 16q10 4 53 17.5t58 17.5l53 14q37 10 59.5 14.5t55 11.5t61.5 11l57 8q29 2 50.5 -15t24.5 -45t-14.5 -49.5t-43.5 -25.5q-25 -2 -50.5 -6t-47 -8t-50 -11t-45 -10.5t-49.5 -12.5 t-45 -13l-51 -17q-37 -10 -46.5 -12t-50.5 -16l-49 -15q-27 -10 -51 3.5t-33.5 40z" />
<glyph unicode="&#xb2;" horiz-adv-x="749" d="M84 643q2 8 6 16q4 6 8 15l23 28q20 25 59 68l101 111q6 8 53 57t82 89t65 81q104 141 78 207q-6 16 -20 16q-31 0 -86 -31q-80 -43 -187 -141q-20 -20 -48 -18t-47 22.5t-17 48t22 45.5q117 109 211 162q88 47 154 47q104 0 145 -102q53 -133 -96 -336q-35 -47 -70 -88 l-90 -96l-51 -53l-82 -93q279 27 381 27q29 0 48 -19.5t19 -48t-19 -48t-48 -19.5q-70 0 -143.5 -5t-169 -14.5t-142.5 -13.5q-4 0 -8 -2q-18 -4 -25 -6q-76 -12 -102 49q-10 23 -4 45z" />
<glyph unicode="&#xb3;" horiz-adv-x="698" d="M58 615.5q-11 25.5 0.5 51t37 37t51.5 -1.5q66 -27 140.5 -33.5t140.5 11.5q131 37 125 174q-2 66 -39 94q-31 27 -90 33q-47 6 -109 -2q-14 -2 -39 -6q-10 0 -14 -2h-10q-8 0 -16 2q-37 8 -50 43q-10 27 0 53q8 25 31 39q16 12 45 16q4 2 13.5 3t13.5 1q4 2 6 2 q53 27 86 50q59 41 89 80.5t17 68.5q-2 4 -14 4q-37 0 -98 -30q-113 -53 -187 -119q-20 -20 -47.5 -18.5t-47 22t-17.5 48.5t22 46q88 82 219 143q88 41 152 43q106 2 145 -90q39 -96 -34 -198q-31 -39 -76 -76q57 -16 96 -51q82 -68 88 -191q6 -125 -56.5 -203.5 t-164.5 -109.5q-94 -25 -191.5 -15.5t-181.5 46.5q-25 10 -36 35.5z" />
<glyph unicode="&#xb4;" horiz-adv-x="409" d="M68 1270q49 158 178 307q18 23 45.5 25t49 -16.5t23.5 -46.5t-16 -48q-111 -131 -153 -262q-8 -27 -33 -40t-51.5 -4t-40 33.5t-2.5 51.5z" />
<glyph unicode="&#xb5;" d="M53 -72q86 666 78 1098q0 29 19.5 49.5t47 20.5t48 -19.5t20.5 -46.5q6 -342 -39 -774q2 -2 4 -6q31 -57 79 -96t98 -50q111 -20 184 97q74 115 72 372q-4 193 -48 414q-6 27 9.5 50.5t43 28.5t51 -10.5t28.5 -43.5q47 -231 51 -439q2 -260 -70 -407q27 -27 92 -82 q20 -18 22.5 -46t-16 -49.5t-46 -23.5t-50.5 17l-82 73q-115 -113 -266 -82q-96 18 -176 90l-19 -151q-4 -29 -26.5 -45.5t-50 -13t-44 26t-14.5 48.5z" />
<glyph unicode="&#xb6;" horiz-adv-x="948" d="M70 872.5q-11 96.5 25 179.5t95.5 152.5t137.5 118.5q174 109 344 82q203 -31 289 -238q12 -27 0.5 -52t-35.5 -36q-12 -6 -25 -6q2 -53 6 -148.5t6 -131.5q2 -57 10.5 -193.5t12.5 -211.5t8 -187.5t4 -204.5q0 -29 -19.5 -48.5t-48 -19.5t-48 19.5t-19.5 48.5 q0 197 -18 520q-35 -6 -58 -8q10 -295 4 -526q0 -29 -20.5 -47.5t-49 -18.5t-47 20.5t-18.5 49.5q6 227 -4 510q-33 0 -65 2q-262 20 -390 190q-66 88 -77 184.5zM221 1003.5q-43 -120.5 33 -233.5q92 -121 295 -137q22 -2 47 -2q-6 123 -19.5 350t-17.5 289 q-82 -12 -160 -62q-135 -84 -178 -204.5zM696 1262q2 -41 15.5 -269.5t19.5 -349.5q20 2 55 8q-6 80 -8 133q-2 41 -6 142.5t-9 171t-15 135.5q-23 18 -52 29z" />
<glyph unicode="&#xb7;" horiz-adv-x="272" d="M82 805q0 29 19.5 48t48 19t48 -19t19.5 -48t-19.5 -48.5t-48 -19.5t-48 19.5t-19.5 48.5z" />
<glyph unicode="&#xb8;" horiz-adv-x="276" d="M10 -119.5q0 27.5 21 47.5q53 51 78.5 89t48.5 102q8 27 33.5 39t52 3t39 -34.5t2.5 -52.5q-27 -80 -62 -131.5t-98 -112.5q-20 -18 -48 -18t-47.5 20.5t-19.5 48z" />
<glyph unicode="&#xb9;" horiz-adv-x="260" d="M84 715q43 403 12 651q-2 29 14.5 50.5t45 24.5t50 -13.5t25.5 -45.5q33 -264 -12 -680q-4 -29 -25.5 -46t-49 -14t-45 24.5t-15.5 48.5z" />
<glyph unicode="&#xba;" horiz-adv-x="679" d="M63 1092q16 119 70 219q55 102 133 145q33 18 80 12q8 0 14.5 -1t8.5 -2t6 -1h4q15 0 29 -6q25 0 45 -16q88 -78 137 -185.5t52 -206t-21 -192.5q-45 -152 -156 -209q-131 -66 -275 33q-88 61 -116 174q-29 111 -11 236zM197 1073q-14 -98 5 -173t66 -107 q76 -53 135.5 -22.5t88.5 126.5q18 68 16 141.5t-37 152.5t-96 138l-45 6h-4q-41 -27 -78 -98.5t-51 -163.5z" />
<glyph unicode="&#xbb;" horiz-adv-x="890" d="M78 973.5q2 27.5 22.5 47t48.5 17.5t46 -22q8 -6 32 -33l72 -72l76 -77l110 -115l39 -39q8 -10 13 -16q4 -4 6 -9q8 -12 10 -26q6 -33 -14 -74q-12 -23 -35 -53q-35 -47 -101 -117l-178 -182q-18 -20 -46.5 -20.5t-49 18t-20.5 47t18 49.5l178 180q59 66 90 107l15 18 l-21 25l-110 112l-183 187q-20 20 -18 47.5zM356.5 1016.5q-0.5 27.5 19 48t47.5 20.5t48 -18q66 -66 223 -238l127 -147q29 -33 43 -55q10 -14 15 -25q6 -8 8 -16q6 -23 0 -43l-13 -23l-4 -4l-6 -6l-16 -16l-45 -43q-72 -68 -74 -72q-49 -51 -225 -262q-16 -23 -45 -25 t-50.5 15.5t-23.5 46t16 49.5l230 270q6 6 78 74l26 26l-18 23l-123 143q-154 168 -217 230q-20 20 -20.5 47.5z" />
<glyph unicode="&#xbc;" horiz-adv-x="1433" d="M106 50q-5 27 11 50l305 412l362 496q147 209 285 424q14 23 42 28.5t51.5 -8.5t29.5 -42t-8 -52q-131 -207 -287 -424l-367 -500l-303 -411q-16 -23 -43.5 -28t-50 11.5t-27.5 43.5zM233 1401q-2 27 17.5 47t47.5 22.5t48.5 -17t22.5 -48.5q16 -377 16 -614 q0 -29 -19.5 -48.5t-48 -19.5t-48 19.5t-19.5 48.5q0 233 -17 610zM788 328q0 10 2.5 20t4.5 14l4 5q2 4 6 10l6 6l12 12l35 31q47 43 57 55q158 182 259 336v2q0 29 19 48.5t48 19.5t48.5 -19.5t19.5 -48.5q0 -43 -2 -203.5t0 -248.5h57q27 0 46.5 -20.5t19.5 -48.5 t-20.5 -47.5t-49.5 -19.5h-49q6 -113 20 -202q4 -29 -13.5 -51.5t-45 -26.5t-50 13.5t-26.5 43.5q-14 100 -20 223q-57 2 -103 2q-100 2 -158 11q-39 4 -61 10q-16 6 -31 14q-33 23 -35 60zM997 373q33 -2 80 -4q41 0 94 -2q-2 86 0 213q-68 -88 -153 -189q-6 -8 -21 -18z " />
<glyph unicode="&#xbd;" horiz-adv-x="1331" d="M106 50q-5 27 11 50l305 412l362 496q147 209 285 424q14 23 42 28.5t51.5 -8.5t29.5 -42t-8 -52q-131 -207 -287 -424l-367 -500l-303 -411q-16 -23 -43.5 -28t-50 11.5t-27.5 43.5zM233 1401q-2 27 17.5 47t47.5 22.5t48.5 -17t22.5 -48.5q16 -377 16 -614 q0 -29 -19.5 -48.5t-48 -19.5t-48 19.5t-19.5 48.5q0 233 -17 610zM754 131q12 18 34 37l23 18l8 4q25 31 99 107q70 72 104 113q106 129 100 217q-2 47 -18 59q-10 6 -37 -2q-39 -12 -79 -46t-56 -71q-12 -25 -39 -35t-51.5 2.5t-34.5 39t2 51.5q29 61 91.5 114.5 t127.5 73.5q88 27 152 -16q70 -47 77 -162q10 -141 -131 -311q-33 -39 -112 -121q-55 -57 -72 -76q29 -2 66 -2q59 2 225 8q27 2 47 -17.5t22.5 -47t-17 -48t-48.5 -22.5l-227 -8q-84 0 -136 6q-33 2 -53 8q-43 12 -61 39q-31 41 -6 88z" />
<glyph unicode="&#xbe;" horiz-adv-x="1511" d="M80 1209.5q0 27.5 20 47.5q90 86 199 152q88 53 150 53q53 0 88 -37q33 -33 36 -90q4 -63 -28 -129q53 -6 100 -45q49 -37 60 -106q27 -193 -140 -312q-117 -84 -299 -112q-27 -4 -50 12t-27.5 44t12 51.5t45.5 27.5q147 23 239 88q100 72 84 180q-2 16 -6 21 q-37 29 -78 8q-8 -4 -22 -12l-29 -17q-47 -27 -82 -26q-39 0 -59 30q-29 39 -2 80q10 12 28 29l17 12l8 6q4 2 4 4q35 39 50.5 58.5t28.5 46t11 49.5v2q-27 -6 -69 -31q-94 -55 -174 -135q-20 -18 -48 -18t-47.5 20.5t-19.5 48zM179 50q-5 27 11 50l306 412l362 496 q147 209 285 424q14 23 41.5 28.5t51.5 -8.5t30 -42t-9 -52q-131 -207 -286 -424l-367 -500l-303 -411q-16 -23 -44 -28t-50.5 11.5t-27.5 43.5zM862 328q0 10 2 20t4 14l4 5q2 4 7 10l6 6l12 12l35 31q47 43 57 55q158 182 258 336v2q0 29 19.5 48.5t48 19.5t48 -19.5 t19.5 -48.5q0 -43 -2 -203.5t0 -248.5h58q27 0 46 -20.5t19 -48.5t-20.5 -47.5t-48.5 -19.5h-50q6 -113 21 -202q4 -29 -13.5 -51.5t-45 -26.5t-50 13.5t-26.5 43.5q-14 100 -21 223q-57 2 -102 2q-100 2 -158 11q-39 4 -61 10q-16 6 -31 14q-33 23 -35 60zM1071 373 q33 -2 80 -4q41 0 94 -2q-2 86 0 213q-68 -88 -153 -189q-6 -8 -21 -18z" />
<glyph unicode="&#xbf;" horiz-adv-x="749" d="M82 127q-27 123 45 270q14 29 33.5 63t34.5 56l41 62l36 57q45 68 71 119t46.5 112.5t18.5 123t-25 124.5q-10 25 2 50.5t38 35.5t51.5 -2t35.5 -39q31 -86 34 -170t-24.5 -162.5t-56.5 -136.5q-25 -51 -76 -129q-119 -184 -139 -223q-51 -106 -35 -182q12 -59 59 -72 q53 -14 127 22q86 43 144.5 133.5t58.5 206.5q0 29 19.5 48.5t48 19.5t48 -19.5t19.5 -48.5q0 -158 -79.5 -279.5t-196.5 -180.5q-121 -61 -225 -33q-125 35 -154 174zM371 1357.5q0 28.5 19.5 48t48 19.5t48 -19.5t19.5 -48t-19.5 -48t-48 -19.5t-48 19.5t-19.5 48z" />
<glyph unicode="&#xc0;" horiz-adv-x="1228" d="M61 35q41 143 99 317q-23 18 -25 47q-2 27 16.5 48.5t47.5 23.5l69 205l80 237l68 203q14 51 63 184l39 103q8 23 14 35q2 8 7 12q2 6 6 10q6 8 12 13q23 20 53 16q25 -4 41 -25q6 -4 8 -10q4 -6 6.5 -11t4.5 -16q4 -12 10 -36l31 -117l61 -248q86 -330 162 -539 q41 -16 41 -61q0 -16 -6 -29q104 -268 221 -409q18 -20 16 -49t-23.5 -46.5t-50 -15.5t-45.5 25q-133 160 -249 456q-275 -2 -539 -16q-63 -190 -106 -344q-8 -27 -33 -40t-51.5 -6t-40 31.5t-7.5 51.5zM344 479q219 12 444 15q-68 195 -147 499l-53 211q-33 -96 -45 -129 q-19 -64 -199 -596zM412.5 1662q-4.5 28 10.5 51.5t42.5 28.5t50.5 -11l277 -181q25 -14 30.5 -41.5t-8.5 -51t-42 -30t-50 8.5q-61 37 -281 184q-25 14 -29.5 42z" />
<glyph unicode="&#xc1;" horiz-adv-x="1228" d="M61 35q41 143 99 317q-23 18 -25 47q-2 27 16.5 48.5t47.5 23.5l69 205l80 237l68 203q14 51 63 184l39 103q8 23 14 35q2 8 7 12q2 6 6 10q6 8 12 13q23 20 53 16q25 -4 41 -25q6 -4 8 -10q4 -6 6.5 -11t4.5 -16q4 -12 10 -36l31 -117l61 -248q86 -330 162 -539 q41 -16 41 -61q0 -16 -6 -29q104 -268 221 -409q18 -20 16 -49t-23.5 -46.5t-50 -15.5t-45.5 25q-133 160 -249 456q-275 -2 -539 -16q-63 -190 -106 -344q-8 -27 -33 -40t-51.5 -6t-40 31.5t-7.5 51.5zM344 479q219 12 444 15q-68 195 -147 499l-53 211q-33 -96 -45 -129 q-19 -64 -199 -596zM429 1547.5q5 27.5 30 41.5q96 66 188 148q20 18 49 16t47.5 -22.5t16.5 -49t-23 -47.5q-100 -86 -205 -155q-23 -16 -50 -11t-42.5 28.5t-10.5 51z" />
<glyph unicode="&#xc2;" horiz-adv-x="1228" d="M61 35q41 143 99 317q-23 18 -25 47q-2 27 16.5 48.5t47.5 23.5l69 205l80 237l68 203q14 51 63 184l39 103q8 23 14 35q2 8 7 12q2 6 6 10q6 8 12 13q23 20 53 16q25 -4 41 -25q6 -4 8 -10q4 -6 6.5 -11t4.5 -16q4 -12 10 -36l31 -117l61 -248q86 -330 162 -539 q41 -16 41 -61q0 -16 -6 -29q104 -268 221 -409q18 -20 16 -49t-23.5 -46.5t-50 -15.5t-45.5 25q-133 160 -249 456q-275 -2 -539 -16q-63 -190 -106 -344q-8 -27 -33 -40t-51.5 -6t-40 31.5t-7.5 51.5zM343 1423.5q-7 26.5 5 51.5l47 86q29 53 39 73q47 80 98 99 q63 23 142 -41q41 -35 139 -142q20 -20 18 -47.5t-22.5 -47t-48 -17.5t-45.5 22q-92 98 -127 127q-8 6 -15 10q-10 -10 -22 -32l-37 -70l-47 -86q-14 -25 -41 -32t-51.5 6.5t-31.5 40zM344 479q219 12 444 15q-68 195 -147 499l-53 211q-33 -96 -45 -129q-19 -64 -199 -596z " />
<glyph unicode="&#xc3;" horiz-adv-x="1228" d="M61 35q41 143 99 317q-23 18 -25 47q-2 27 16.5 48.5t47.5 23.5l69 205l80 237l68 203q14 51 63 184l39 103q8 23 14 35q2 8 7 12q2 6 6 10q6 8 12 13q23 20 53 16q25 -4 41 -25q6 -4 8 -10q4 -6 6.5 -11t4.5 -16q4 -12 10 -36l31 -117l61 -248q86 -330 162 -539 q41 -16 41 -61q0 -16 -6 -29q104 -268 221 -409q18 -20 16 -49t-23.5 -46.5t-50 -15.5t-45.5 25q-133 160 -249 456q-275 -2 -539 -16q-63 -190 -106 -344q-8 -27 -33 -40t-51.5 -6t-40 31.5t-7.5 51.5zM326 1465.5q-10 25.5 2 52.5q72 160 159 186q68 23 162 -37 q61 -39 82 -41q33 -2 84 62q16 23 44 25.5t50.5 -14t25.5 -44t-13 -49.5q-94 -121 -201 -115q-53 4 -143 61q-41 27 -50 23q-31 -8 -77 -115q-12 -25 -38 -35t-51.5 2.5t-35.5 38zM344 479q219 12 444 15q-68 195 -147 499l-53 211q-33 -96 -45 -129q-19 -64 -199 -596z" />
<glyph unicode="&#xc4;" horiz-adv-x="1228" d="M61 35q41 143 99 317q-23 18 -25 47q-2 27 16.5 48.5t47.5 23.5l69 205l80 237l68 203q14 51 63 184l39 103q8 23 14 35q2 8 7 12q2 6 6 10q6 8 12 13q23 20 53 16q25 -4 41 -25q6 -4 8 -10q4 -6 6.5 -11t4.5 -16q4 -12 10 -36l31 -117l61 -248q86 -330 162 -539 q41 -16 41 -61q0 -16 -6 -29q104 -268 221 -409q18 -20 16 -49t-23.5 -46.5t-50 -15.5t-45.5 25q-133 160 -249 456q-275 -2 -539 -16q-63 -190 -106 -344q-8 -27 -33 -40t-51.5 -6t-40 31.5t-7.5 51.5zM344 479q219 12 444 15q-68 195 -147 499l-53 211q-33 -96 -45 -129 q-19 -64 -199 -596zM440 1603.5q0 28.5 19.5 48t48.5 19.5t48 -19.5t19 -48t-19 -48t-48 -19.5t-48.5 19.5t-19.5 48zM633 1618q0 29 19.5 48.5t48 19.5t48 -19.5t19.5 -48.5t-19.5 -48.5t-48 -19.5t-48 19.5t-19.5 48.5z" />
<glyph unicode="&#xc5;" horiz-adv-x="1228" d="M61 35q41 143 99 317q-23 18 -25 47q-2 27 16.5 48.5t47.5 23.5l69 205l80 237l68 203q14 51 63 184l6 15q-39 4 -63 18q-76 39 -100.5 109.5t0.5 132.5q20 61 68 110.5t110 67.5q100 33 191 0t130 -108q49 -86 -2 -168q-39 -66 -135 -101l27 -102l61 -248 q86 -330 162 -539q41 -16 41 -61q0 -16 -6 -29q104 -268 221 -409q18 -20 16 -49t-23.5 -46.5t-50 -15.5t-45.5 25q-133 160 -249 456q-275 -2 -539 -16q-63 -190 -106 -344q-8 -27 -33 -40t-51.5 -6t-40 31.5t-7.5 51.5zM344 479q219 12 444 15q-68 195 -147 499l-53 211 q-33 -96 -45 -129q-19 -64 -199 -596zM451 1534q-18 -55 32 -82q8 -2 43 -4h11l2 2q2 6 6 10q6 8 12 13q16 14 39 16q8 4 16 6q72 18 93 51q8 16 -3 35q-14 29 -59 45t-102 0q-29 -10 -54.5 -35.5t-35.5 -56.5z" />
<glyph unicode="&#xc6;" horiz-adv-x="1843" d="M61 35q47 164 117 377q-25 14 -33 43q-6 27 8.5 51t41.5 31l28 8q164 481 193 571q14 51 63 184l39 103q8 23 14 35q2 8 7 12q2 6 6 10q6 8 12 13q20 18 47 16q197 39 617 61q29 2 49 -17.5t22 -47t-17.5 -48t-45.5 -22.5q-375 -20 -543 -49l25 -92l61 -248 q51 -195 94 -332q305 66 611 119q29 6 51 -10.5t27.5 -44t-11 -50t-43.5 -26.5q-299 -55 -594 -119q125 -371 264 -553q283 68 605 68q29 0 48 -19.5t19 -48t-19.5 -48t-47.5 -19.5q-346 0 -652 -84q-29 -6 -52 7t-32 40q-6 27 7 49q-145 203 -273 580q-223 -50 -446 -105 q-84 -250 -135 -432q-8 -27 -33 -40t-51.5 -6t-40 31.5t-7.5 51.5zM379 582l354 82q-41 133 -92 329l-53 211q-33 -96 -45 -129q-41 -133 -164 -493z" />
<glyph unicode="&#xc7;" horiz-adv-x="950" d="M29 604q-4 246 43 430q25 92 69.5 188.5t106.5 155.5q57 55 121.5 73.5t121 4.5t105.5 -57q63 -55 101 -142.5t38 -179.5q0 -29 -19.5 -48t-48 -19t-48 19t-19.5 48q0 63 -25.5 124t-66.5 95q-80 68 -166 -16q-43 -41 -81 -121t-58 -158q-43 -166 -39 -393 q6 -252 72 -364q72 -121 186 -150q117 -27 213 66q113 106 192 366q8 27 34 40.5t52.5 5t40 -34t4.5 -52.5q-90 -291 -229 -424q-98 -92 -219 -106q-45 -158 -127 -254q-16 -23 -45 -25t-50.5 15.5t-23.5 46.5t17 49q59 72 92 182q-158 45 -252 205q-86 145 -92 430z" />
<glyph unicode="&#xc8;" horiz-adv-x="878" d="M35 1348q-2 29 17.5 49t45.5 22q10 0 21 -2q416 43 618 51q27 2 47.5 -17t22.5 -47t-17.5 -48.5t-48.5 -22.5q-197 -8 -569 -47q14 -307 21 -487h2q309 33 458 37q29 0 49.5 -18.5t20.5 -47.5t-18.5 -49.5t-47.5 -20.5q-145 -4 -446 -36h-14q6 -297 -2 -539 q496 31 602 33q29 0 49 -18.5t20 -47.5t-18.5 -49t-46.5 -20q-98 -2 -203.5 -8.5t-243.5 -14.5l-204 -14q-12 -4 -27 -4q-29 2 -48.5 22.5t-17.5 46.5q6 154 7.5 312.5t-4 348t-9.5 302.5zM111 1673q-9 27 4.5 51.5t40 33.5t51.5 -3q219 -111 321 -137q27 -8 40.5 -31.5 t6 -51.5t-31 -41t-51.5 -7q-119 33 -347 145q-25 14 -34 41z" />
<glyph unicode="&#xc9;" horiz-adv-x="878" d="M35 1348q-2 29 17.5 49t45.5 22q10 0 21 -2q416 43 618 51q27 2 47.5 -17t22.5 -47t-17.5 -48.5t-48.5 -22.5q-197 -8 -569 -47q14 -307 21 -487h2q309 33 458 37q29 0 49.5 -18.5t20.5 -47.5t-18.5 -49.5t-47.5 -20.5q-145 -4 -446 -36h-14q6 -297 -2 -539 q496 31 602 33q29 0 49 -18.5t20 -47.5t-18.5 -49t-46.5 -20q-98 -2 -203.5 -8.5t-243.5 -14.5l-204 -14q-12 -4 -27 -4q-29 2 -48.5 22.5t-17.5 46.5q6 154 7.5 312.5t-4 348t-9.5 302.5zM196.5 1534q1.5 29 24.5 45l211 172q20 16 48 13t45.5 -24.5t14.5 -49t-26 -45.5 l-207 -168q-20 -18 -49 -16.5t-46 23t-15.5 50.5z" />
<glyph unicode="&#xca;" d="M35 1348q-2 29 17.5 49t45.5 22q10 0 21 -2q416 43 618 51q27 2 47.5 -17t22.5 -47t-17.5 -48.5t-48.5 -22.5q-197 -8 -569 -47q14 -307 21 -487h2q309 33 458 37q29 0 49.5 -18.5t20.5 -47.5t-18.5 -49.5t-47.5 -20.5q-145 -4 -446 -36h-14q6 -297 -2 -539 q496 31 602 33q29 0 49 -18.5t20 -47.5t-18.5 -49t-46.5 -20q-98 -2 -203.5 -8.5t-243.5 -14.5l-204 -14q-12 -4 -27 -4q-29 2 -48.5 22.5t-17.5 46.5q6 154 7.5 312.5t-4 348t-9.5 302.5zM148 1509.5q-6 26.5 8 51.5q16 27 108 157l68 92l24 31q6 8 11 12l8 9q6 4 10 6 q16 10 36.5 10t37.5 -12q4 -2 8 -6q2 -4 6 -7q2 -2 4 -6l4 -8l17 -24l49 -74q82 -123 100 -146q18 -20 16.5 -48.5t-23.5 -46t-50.5 -15.5t-44.5 24q-33 39 -111 158l-18 29l-41 -58q-96 -135 -105 -147q-14 -25 -40.5 -31t-51 8.5t-30.5 41z" />
<glyph unicode="&#xcb;" horiz-adv-x="878" d="M35 1348q-2 29 17.5 49t45.5 22q10 0 21 -2q416 43 618 51q27 2 47.5 -17t22.5 -47t-17.5 -48.5t-48.5 -22.5q-197 -8 -569 -47q14 -307 21 -487h2q309 33 458 37q29 0 49.5 -18.5t20.5 -47.5t-18.5 -49.5t-47.5 -20.5q-145 -4 -446 -36h-14q6 -297 -2 -539 q496 31 602 33q29 0 49 -18.5t20 -47.5t-18.5 -49t-46.5 -20q-98 -2 -203.5 -8.5t-243.5 -14.5l-204 -14q-12 -4 -27 -4q-29 2 -48.5 22.5t-17.5 46.5q6 154 7.5 312.5t-4 348t-9.5 302.5zM242 1579q0 29 19.5 48.5t48 19.5t48 -19.5t19.5 -48.5t-19.5 -48.5t-48 -19.5 t-48 19.5t-19.5 48.5zM453 1568.5q0 28.5 19.5 48t48 19.5t48 -19.5t19.5 -48t-19.5 -48t-48 -19.5t-48 19.5t-19.5 48z" />
<glyph unicode="&#xcc;" horiz-adv-x="264" d="M5 1666q-5 28 11.5 50.5t44 27.5t50.5 -11l168 -117q23 -16 27.5 -44t-11.5 -50.5t-44 -27.5t-50 11l-168 117q-23 16 -28 44zM86 1380q-2 29 16.5 49.5t47 22.5t49 -16t22.5 -47q8 -150 8 -926q0 -63 4 -219q4 -150 3 -226q0 -29 -20.5 -47t-49.5 -18t-47.5 20.5 t-18.5 49.5q2 70 -2 217q-4 158 -4 223q0 772 -8 917z" />
<glyph unicode="&#xcd;" horiz-adv-x="264" d="M13.5 1543.5q-0.5 27.5 17.5 47.5q88 94 184 174q23 18 50.5 16.5t45 -24t15.5 -50.5t-25 -44q-90 -76 -172 -162q-18 -20 -46 -21t-48.5 17.5t-21 46zM80 1380q-2 29 16.5 49.5t47 22.5t49 -16t22.5 -47q8 -150 8 -926q0 -63 4 -219q4 -150 2 -226q0 -29 -20.5 -47 t-49 -18t-47 20.5t-18.5 49.5q2 70 -2 217q-4 158 -4 223q0 772 -8 917z" />
<glyph unicode="&#xce;" horiz-adv-x="264" d="M-39 1491.5q-6 27.5 8 50.5q63 102 92 137q55 70 119 66q55 -4 113 -72q27 -33 98 -137q16 -25 11 -52.5t-28.5 -43t-51 -10t-41.5 27.5q-68 100 -93 129q-8 10 -14 17q-4 -4 -8 -11q-25 -29 -82 -120q-14 -25 -42 -31t-51.5 8t-29.5 41.5zM86 1380q-2 29 16.5 49.5 t47 22.5t49 -16t22.5 -47q8 -150 8 -926q0 -63 4 -219q4 -150 3 -226q0 -29 -20.5 -47t-49.5 -18t-47.5 20.5t-18.5 49.5q2 70 -2 217q-4 158 -4 223q0 772 -8 917z" />
<glyph unicode="&#xcf;" horiz-adv-x="272" d="M2 1603.5q0 28.5 19.5 48t48 19.5t48 -19.5t19.5 -48t-19.5 -48t-48 -19.5t-48 19.5t-19.5 48zM80 1380q-2 29 16.5 49.5t47 22.5t49 -16t22.5 -47q8 -150 8 -926q0 -63 4 -219q4 -150 2 -226q0 -29 -20.5 -47t-49 -18t-47 20.5t-18.5 49.5q2 70 -2 217q-4 158 -4 223 q0 772 -8 917zM190 1601.5q0 28.5 19.5 48t48.5 19.5t48.5 -19.5t19.5 -48t-19.5 -48t-48.5 -19.5t-48.5 19.5t-19.5 48z" />
<glyph unicode="&#xd0;" horiz-adv-x="1091" d="M-129 728q-4 28 13.5 50.5t45.5 26.5q63 8 152 16q-2 426 -6 525q0 12 2 20q2 25 17 41t38 20q135 25 271.5 -12t250 -117.5t205.5 -191.5q88 -106 148 -234q129 -279 59 -510q-39 -129 -140.5 -223t-262.5 -141q-215 -61 -451 22q-18 -43 -66 -40q-29 2 -47 22.5 t-16 48.5q4 59 6 120.5t1 131.5t-2 116t-3 131t-2 120v14q-78 -6 -137 -14q-27 -4 -49.5 13t-26.5 45zM213 1303q2 -82 4 -472q86 6 141 13q27 2 48.5 -15.5t24.5 -45t-14.5 -49t-45.5 -25.5q-55 -6 -152 -13v-22q8 -399 6 -514q215 -84 402 -31q252 72 311 272 q55 182 -53 414q-100 215 -288.5 356.5t-383.5 131.5z" />
<glyph unicode="&#xd1;" horiz-adv-x="1024" d="M59 35q6 139 8.5 284.5t0.5 355.5t-2 286v208v134q2 25 2 38q4 14 10 27q10 20 31 31q29 14 59 0q37 -16 74 -70q23 -33 49 -88l41 -88q20 -47 26 -59q244 -459 469 -779q2 -2 43 -65q-29 229 -30 250q-20 303 -23 368q-2 84 -4 266.5t-4 278.5q0 29 18.5 49.5t47 20.5 t49 -18.5t20.5 -47.5q2 -96 4 -278.5t4 -266.5q2 -61 23 -364q0 -14 29 -248q14 -98 18 -147q4 -33 6 -52v-18v-10q0 -6 -2 -10q-4 -25 -25 -39q-43 -33 -92 -2q-18 10 -37 32q-27 29 -65 84q-23 33 -54.5 84t-35.5 56q-231 328 -477 794q-8 14 -31 66l-8 16v-153 q0 -74 2 -287t0 -360.5t-8 -286.5q-2 -27 -22.5 -46.5t-48.5 -17.5t-47.5 22.5t-17.5 49.5zM172 1487.5q-6 27.5 8 52.5q74 127 164 152q68 16 158 -25q74 -35 96 -37q39 -4 82 39q20 18 48 18.5t47.5 -20t19.5 -48.5t-21 -48q-90 -86 -190 -76q-43 6 -138 49q-47 20 -67 17 q-37 -10 -84 -91q-12 -25 -40 -30.5t-52.5 7.5t-30.5 40.5z" />
<glyph unicode="&#xd2;" horiz-adv-x="1046" d="M72 653q-10 264 75 480q98 246 285 319q8 2 19 6q16 10 34 10h31q6 0 15.5 1t14.5 1t7 3q28 3 53 -15q195 -43 314 -235q133 -211 135 -521q2 -301 -119 -514q-66 -115 -165 -178t-224 -55q-225 16 -357 240q-109 186 -118 458zM207 659q10 -242 100 -397 q94 -162 248 -172q162 -12 264 166q102 180 101 446q-2 268 -115 449q-109 172 -283 182q-27 -2 -41 -8q-131 -51 -209 -242q-74 -188 -65 -424zM295 1661q-10 27 1 52.5t37.5 35.5t51.5 -2q106 -45 260 -105q27 -10 38 -35.5t1 -52t-35.5 -38t-52.5 -0.5q-156 61 -264 108 q-27 10 -37 37z" />
<glyph unicode="&#xd3;" horiz-adv-x="1040" d="M66 653q-10 264 75 480q98 246 285 319q8 2 18 6q16 10 35 10h31q6 0 15.5 1t14.5 1t7 3q28 3 53 -15q195 -43 313 -235q133 -211 136 -521q2 -301 -119 -514q-66 -115 -165 -178t-224 -55q-225 16 -357 240q-109 186 -118 458zM201 659q10 -242 100 -397 q94 -162 248 -172q162 -12 264 166q102 180 100 446q-2 268 -114 449q-109 172 -283 182q-27 -2 -41 -8q-131 -51 -209 -242q-74 -188 -65 -424zM293 1578q8 28 33 40q109 57 227 154q23 16 50.5 13t45 -24.5t14 -49.5t-23.5 -46q-131 -102 -248 -166q-25 -14 -52.5 -6 t-40.5 32.5t-5 52.5z" />
<glyph unicode="&#xd4;" horiz-adv-x="1040" d="M66 653q-10 264 75 480q98 246 285 319q8 2 18 6q16 10 35 10h31q6 0 15.5 1t14.5 1t7 3q28 3 53 -15q195 -43 313 -235q133 -211 136 -521q2 -301 -119 -514q-66 -115 -165 -178t-224 -55q-225 16 -357 240q-109 186 -118 458zM201 659q10 -242 100 -397 q94 -162 248 -172q162 -12 264 166q102 180 100 446q-2 268 -114 449q-109 172 -283 182q-27 -2 -41 -8q-131 -51 -209 -242q-74 -188 -65 -424zM266.5 1535q-1.5 28 16.5 48q88 104 129 139q68 57 133 47q51 -8 114 -69l125 -123q20 -20 20.5 -48t-19 -48.5t-47 -20.5 t-48.5 19l-123 123q-31 31 -43 34q-8 -4 -26 -18q-33 -27 -113 -121q-18 -23 -46 -25t-49.5 16.5t-23 46.5z" />
<glyph unicode="&#xd5;" horiz-adv-x="1040" d="M72 653q-10 264 75 480q98 246 285 319q8 2 19 6q16 10 34 10h31q6 0 15.5 1t14.5 1t7 3q28 3 53 -15q195 -43 314 -235q133 -211 135 -521q2 -301 -119 -514q-66 -115 -165 -178t-224 -55q-225 16 -357 240q-109 186 -118 458zM207 659q10 -242 100 -397 q94 -162 248 -172q162 -12 264 166q102 180 101 446q-2 268 -115 449q-109 172 -283 182q-27 -2 -41 -8q-131 -51 -209 -242q-74 -188 -65 -424zM238 1569q53 141 137 176q72 29 164 -23q14 -8 59 -36q31 -20 49 -29q39 -18 62 -8q6 2 14 12q33 31 35 31q20 18 49 16 t46 -23.5t15 -50t-24 -45.5l-8 -8l-9 -8l-10 -10q-27 -25 -51 -37q-82 -37 -178 10q-25 12 -64 36.5t-51 31.5q-37 20 -47 16q-29 -12 -61 -100q-10 -25 -36 -37.5t-51.5 -2t-37.5 36t-2 52.5z" />
<glyph unicode="&#xd6;" horiz-adv-x="1034" d="M59 653q-10 264 76 480q98 246 285 319q8 2 18 6q16 10 35 10h31q6 0 15 1t14.5 1t7.5 3q28 3 53 -15q195 -43 313 -235q133 -211 135 -521q2 -301 -118 -514q-66 -115 -165.5 -178t-223.5 -55q-225 16 -357 240q-109 186 -119 458zM195 659q10 -242 100 -397 q94 -162 248 -172q162 -12 264 166q102 180 100 446q-2 268 -114 449q-109 172 -283 182q-27 -2 -41 -8q-131 -51 -209 -242q-74 -188 -65 -424zM346 1640.5q0 28.5 19.5 48t48 19.5t48 -19.5t19.5 -48t-19.5 -48t-48 -19.5t-48 19.5t-19.5 48zM586 1644.5q0 28.5 19.5 48 t48 19.5t48 -19.5t19.5 -48t-19.5 -48t-48 -19.5t-48 19.5t-19.5 48z" />
<glyph unicode="&#xd7;" horiz-adv-x="839" d="M86.5 990q-2.5 28 17 48.5t47 22.5t48.5 -19l256 -241q131 137 241 264q18 23 46 25t49.5 -16.5t23.5 -46.5t-16 -48q-113 -133 -248 -272l250 -265q20 -20 18 -47.5t-22.5 -47t-48 -17.5t-46.5 22l-247 258l-244 -233q-20 -20 -48 -18.5t-47.5 22t-17.5 48.5t23 46 l239 230l-251 239q-20 18 -22.5 46z" />
<glyph unicode="&#xd8;" horiz-adv-x="1058" d="M84 653q-10 264 76 480q98 246 284 319q8 2 19 6q16 10 35 10h30q6 0 15.5 1t14.5 1t7 3q29 4 53 -15q195 -43 314 -235q45 -70 74 -154q12 -16 12 -37q47 -154 49 -330q2 -301 -119 -514q-66 -115 -165 -178t-224 -55q-225 16 -356 240q-109 186 -119 458zM219 659 q4 -127 35 -235q145 115 321 292t297 324q-23 61 -55 111q-106 172 -282 182q-27 -2 -41 -8q-131 -51 -209 -242q-76 -190 -66 -424zM303 293q8 -16 16 -31q94 -162 248 -172q162 -12 264 166q100 176 101 446q-1 93 -17 181q-135 -158 -305 -323t-307 -267z" />
<glyph unicode="&#xd9;" horiz-adv-x="944" d="M36 1194q1 166 1 180q0 27 19.5 47.5t47 20.5t48 -19.5t20.5 -48.5q0 -18 -1 -178t3 -292t16 -257q23 -223 74 -366q55 -156 142 -201q102 -55 188 29q80 80 125 235q45 145 62.5 330.5t15.5 339t-17 348.5q-2 27 16.5 48.5t46 23.5t49 -16.5t23.5 -47.5q14 -201 19 -354 q2 -158 -17.5 -355.5t-66.5 -357.5q-57 -186 -162 -291q-45 -45 -96 -68.5t-117.5 -21.5t-134.5 39q-129 70 -203 275q-55 156 -80 397q-12 125 -17 260t-4 301zM293 1600q-6 28 9 50.5t42.5 28.5t50.5 -8q29 -20 107 -68.5t119 -76.5q25 -14 29.5 -42t-10.5 -51.5 t-43 -28.5t-50 11l-121 76l-104 65q-23 16 -29 44z" />
<glyph unicode="&#xda;" horiz-adv-x="944" d="M36 1194q1 166 1 180q0 27 19.5 47.5t47 20.5t48 -19.5t20.5 -48.5q0 -18 -1 -178t3 -292t16 -257q23 -223 74 -366q55 -156 142 -201q102 -55 188 29q80 80 125 235q45 145 62.5 330.5t15.5 339t-17 348.5q-2 27 16.5 48.5t46 23.5t49 -16.5t23.5 -47.5q14 -201 19 -354 q2 -158 -17.5 -355.5t-66.5 -357.5q-57 -186 -162 -291q-45 -45 -96 -68.5t-117.5 -21.5t-134.5 39q-129 70 -203 275q-55 156 -80 397q-12 125 -17 260t-4 301zM327.5 1481q5.5 27 30.5 41q51 31 117 80l117 90q23 16 50.5 12t45 -26.5t13 -50.5t-26.5 -46l-119 -88 q-72 -53 -127 -86q-25 -14 -51.5 -8t-40.5 30.5t-8.5 51.5z" />
<glyph unicode="&#xdb;" horiz-adv-x="923" d="M36 1194q1 166 1 180q0 27 19.5 47.5t47 20.5t48 -19.5t20.5 -48.5q0 -18 -1 -178t3 -292t16 -257q23 -223 74 -366q55 -156 142 -201q102 -55 188 29q80 80 125 235q45 145 62.5 330.5t15.5 339t-17 348.5q-2 27 16.5 48.5t46 23.5t49 -16.5t23.5 -47.5q14 -201 19 -354 q2 -158 -17.5 -355.5t-66.5 -357.5q-57 -186 -162 -291q-45 -45 -96 -68.5t-117.5 -21.5t-134.5 39q-129 70 -203 275q-55 156 -80 397q-12 125 -17 260t-4 301zM226.5 1512.5q-4.5 27.5 11.5 50.5q96 133 114 153q63 76 125 72q57 -4 117 -82q6 -8 111 -156q16 -23 11 -50 t-27.5 -43.5t-50.5 -11.5t-44 28q-102 145 -107 151q-10 12 -18 21l-14 -15q-6 -8 -107 -145q-16 -23 -44 -28t-50.5 11.5t-27 44z" />
<glyph unicode="&#xdc;" horiz-adv-x="937" d="M36 1194q1 166 1 180q0 27 19.5 47.5t47 20.5t48 -19.5t20.5 -48.5q0 -18 -1 -178t3 -292t16 -257q23 -223 74 -366q55 -156 142 -201q102 -55 188 29q80 80 125 235q45 145 62.5 330.5t15.5 339t-17 348.5q-2 27 16.5 48.5t46 23.5t49 -16.5t23.5 -47.5q14 -201 19 -354 q2 -158 -17.5 -355.5t-66.5 -357.5q-57 -186 -162 -291q-45 -45 -96 -68.5t-117.5 -21.5t-134.5 39q-129 70 -203 275q-55 156 -80 397q-12 125 -17 260t-4 301zM299 1585q0 29 19.5 48.5t48 19.5t48 -19.5t19.5 -48.5t-19.5 -48t-48 -19t-48 19t-19.5 48zM559 1587.5 q0 28.5 19.5 48t48 19.5t48 -19.5t19.5 -48t-19.5 -48t-48 -19.5t-48 19.5t-19.5 48z" />
<glyph unicode="&#xdd;" horiz-adv-x="1024" d="M85 1399q7 26 31.5 39.5t51.5 6.5t41 -32q156 -276 379 -731l108 268l205 484q12 27 38 38t51.5 -0.5t36.5 -37t1 -50.5l-207 -485q-117 -279 -180 -487q-27 -86 -61 -213q-37 -139 -50 -189q-8 -27 -32.5 -40t-51 -6t-40 31.5t-7.5 51.5q14 49 51 189.5t60 216.5l16 49 q-270 553 -436 846q-12 25 -5 51zM417 1522q9 27 34 39q74 39 225 145q23 16 50.5 11t43.5 -27.5t11 -50t-27 -44.5q-160 -113 -242 -153q-25 -14 -51.5 -5t-39.5 33.5t-4 51.5z" />
<glyph unicode="&#xde;" horiz-adv-x="903" d="M61 1417q-2 29 15.5 50.5t45.5 24.5t49.5 -14.5t25.5 -43.5q18 -174 30 -353q94 94 193 150q113 63 211 59q123 -4 205 -108q90 -115 63 -295q-31 -188 -250 -387q-147 -131 -360 -258q-15 -7 -29 -9q4 -225 -14 -360q-4 -27 -26.5 -44t-50.5 -13t-45.5 26.5t-12.5 51.5 q8 57 12 126.5t3 117.5t-3 135t-2 128q-6 522 -60 1016zM240 887q14 -240 16 -486v-20q180 109 303 219q184 168 205 307q20 123 -35 193q-43 53 -103.5 55t-140.5 -41q-70 -41 -136 -104.5t-109 -122.5z" />
<glyph unicode="&#xdf;" horiz-adv-x="911" d="M38 996.5q1 93.5 22.5 172t62.5 144.5q39 59 104.5 104t139.5 60q82 18 158.5 -7.5t125.5 -105.5q102 -166 -39 -393q-16 -29 -47 -72q-31 -45 -41 -61q-12 -20 -18 -35q12 -4 33 -12q115 -43 153 -66q233 -127 205 -426q-10 -109 -82 -179.5t-174 -101.5 q-90 -27 -191.5 -19.5t-177.5 48.5q-33 18 -34 57q-6 -68 -23 -127q-8 -27 -32.5 -40t-51.5 -5.5t-40 31.5t-7 51q10 33 15 70t7.5 68.5t0 80t-3.5 77t-7 86t-10 79.5l-12 90q-8 68 -13 88q-14 106 -19 178t-4 165.5zM172.5 994.5q-6.5 -152.5 24.5 -322.5q2 -20 12 -86 l12 -99q4 -29 10.5 -88t8.5 -98t2 -88t-2 -92q2 8 6 18q12 25 38.5 33t53.5 -6q49 -27 121.5 -32t142.5 16q150 43 160 161q12 123 -26 189.5t-109 105.5q-31 18 -135 58q-41 14 -64 28q-43 27 -55 66q-20 59 37 151q10 16 41 62l47 69q31 51 47 92.5t15 83t-23 78.5 q-45 72 -142 52q-47 -10 -91 -40t-66 -67q-59 -92 -65.5 -244.5z" />
<glyph unicode="&#xe0;" horiz-adv-x="890" d="M62.5 283q0.5 100 64.5 196q66 98 170 138t211.5 10.5t181.5 -121.5q12 -16 27 -39q-20 186 -58 297q-41 123 -94 145q-61 25 -178 -82q-20 -20 -48 -18t-47.5 22.5t-17 48.5t22.5 46q176 164 317 108q113 -43 174 -225q16 -55 31 -119.5t24 -134.5t14 -119t9 -114.5 t6 -77.5q0 -4 15 -113q4 -41 6 -63q4 -37 2 -54q-2 -10 -6 -18q-10 -27 -35 -37q-41 -20 -76 10q-8 8 -14 20.5t-12 35.5l-9 28q-4 14 -6 19l-14 41q-133 -98 -250 -119q-111 -20 -203 10q-94 31 -149 105q-59 74 -58.5 174zM227 190q31 -39 89.5 -58t132.5 -7 q90 19 223 119q-57 139 -88 180q-68 84 -174.5 80t-167.5 -98q-84 -125 -15 -216zM314.5 1305.5q-3.5 27.5 14 49t45 24.5t50.5 -13q98 -80 227 -160q23 -14 29 -41.5t-8.5 -51t-42 -30t-51.5 8.5q-133 84 -240 168q-20 18 -23.5 45.5z" />
<glyph unicode="&#xe1;" horiz-adv-x="890" d="M62.5 283q0.5 100 64.5 196q66 98 170 138t211.5 10.5t181.5 -121.5q12 -16 27 -39q-20 186 -58 297q-41 123 -94 145q-61 25 -178 -82q-20 -20 -48 -18t-47.5 22.5t-17 48.5t22.5 46q176 164 317 108q113 -43 174 -225q16 -55 31 -119.5t24 -134.5t14 -119t9 -114.5 t6 -77.5q0 -4 15 -113q4 -41 6 -63q4 -37 2 -54q-2 -10 -6 -18q-10 -27 -35 -37q-41 -20 -76 10q-8 8 -14 20.5t-12 35.5l-9 28q-4 14 -6 19l-14 41q-133 -98 -250 -119q-111 -20 -203 10q-94 31 -149 105q-59 74 -58.5 174zM227 190q31 -39 89.5 -58t132.5 -7 q90 19 223 119q-57 139 -88 180q-68 84 -174.5 80t-167.5 -98q-84 -125 -15 -216zM334 1138q-2 28 18 48l99 112q63 72 110 115q20 18 48 17.5t46.5 -21t17.5 -48.5t-22 -46q-41 -39 -98 -105l-102 -114q-18 -20 -46 -22.5t-48.5 17t-22.5 47.5z" />
<glyph unicode="&#xe2;" horiz-adv-x="876" d="M48 283q1 100 65 196q66 98 170 138t211.5 10.5t181.5 -121.5q12 -16 26 -39q-20 186 -57 297q-41 123 -94 145q-61 25 -178 -82q-20 -20 -48 -18t-47.5 22.5t-17 48.5t22.5 46q176 164 317 108q113 -43 174 -225q16 -55 30.5 -119.5t24 -134.5t14.5 -119t9 -114.5 t6 -77.5q0 -4 14 -113q4 -41 7 -63q4 -37 2 -54q-2 -10 -7 -18q-10 -27 -34 -37q-41 -20 -76 10q-8 8 -14.5 20.5t-12.5 35.5l-8 28q-4 14 -6 19l-14 41q-133 -98 -250 -119q-111 -20 -203 10q-94 31 -150 105q-59 74 -58 174zM208.5 1158q1.5 28 24.5 44q78 66 142 144 q4 6 18.5 24.5t20.5 24.5q29 33 55 43q49 16 92 -19q18 -16 45 -53l135 -201q16 -23 11.5 -50.5t-27.5 -43.5t-50.5 -11t-43.5 27l-133 197l-19 -22q-72 -90 -160 -164q-23 -16 -50 -14.5t-44.5 24t-16 50.5zM213 190q31 -39 89 -58t132 -7q90 19 223 119q-57 139 -88 180 q-68 84 -174 80t-168 -98q-84 -125 -14 -216z" />
<glyph unicode="&#xe3;" horiz-adv-x="890" d="M62.5 283q0.5 100 64.5 196q66 98 170 138t211.5 10.5t181.5 -121.5q12 -16 27 -39q-20 186 -58 297q-41 123 -94 145q-61 25 -178 -82q-20 -20 -48 -18t-47.5 22.5t-17 48.5t22.5 46q176 164 317 108q113 -43 174 -225q16 -55 31 -119.5t24 -134.5t14 -119t9 -114.5 t6 -77.5q0 -4 15 -113q4 -41 6 -63q4 -37 2 -54q-2 -10 -6 -18q-10 -27 -35 -37q-41 -20 -76 10q-8 8 -14 20.5t-12 35.5l-9 28q-4 14 -6 19l-14 41q-133 -98 -250 -119q-111 -20 -203 10q-94 31 -149 105q-59 74 -58.5 174zM227 190q31 -39 89.5 -58t132.5 -7 q90 19 223 119q-57 139 -88 180q-68 84 -174.5 80t-167.5 -98q-84 -125 -15 -216zM256 1150.5q-6 26.5 8 51.5q100 154 197 164q74 8 157 -70q55 -53 70 -57q27 -6 76 51q18 20 47 22.5t49.5 -16t22.5 -47t-17 -49.5q-104 -119 -209 -92q-14 2 -29.5 9t-25.5 14.5t-24 19.5 l-21 16q-6 4 -20 17l-13 14q-37 35 -49 35q-33 -4 -96 -105q-16 -23 -43 -28.5t-50.5 9.5t-29.5 41.5z" />
<glyph unicode="&#xe4;" horiz-adv-x="890" d="M62.5 283q0.5 100 64.5 196q66 98 170 138t211.5 10.5t181.5 -121.5q12 -16 27 -39q-20 186 -58 297q-41 123 -94 145q-61 25 -178 -82q-20 -20 -48 -18t-47.5 22.5t-17 48.5t22.5 46q176 164 317 108q113 -43 174 -225q16 -55 31 -119.5t24 -134.5t14 -119t9 -114.5 t6 -77.5q0 -4 15 -113q4 -41 6 -63q4 -37 2 -54q-2 -10 -6 -18q-10 -27 -35 -37q-41 -20 -76 10q-8 8 -14 20.5t-12 35.5l-9 28q-4 14 -6 19l-14 41q-133 -98 -250 -119q-111 -20 -203 10q-94 31 -149 105q-59 74 -58.5 174zM227 190q31 -39 89.5 -58t132.5 -7 q90 19 223 119q-57 139 -88 180q-68 84 -174.5 80t-167.5 -98q-84 -125 -15 -216zM360 1177.5q0 28.5 19.5 48t48.5 19.5t48.5 -19.5t19.5 -48t-19.5 -48t-48.5 -19.5t-48.5 19.5t-19.5 48zM582 1188q0 29 19.5 48t48 19t48 -19t19.5 -48t-19.5 -48.5t-48 -19.5t-48 19.5 t-19.5 48.5z" />
<glyph unicode="&#xe5;" d="M56.5 283q0.5 100 64.5 196q66 98 170 138t211.5 10.5t181.5 -121.5q12 -16 27 -39q-20 186 -58 297q-41 123 -94 145q-61 25 -178 -82q-20 -20 -48 -18t-47.5 22.5t-17 48.5t22.5 46q176 164 317 108q113 -43 174 -225q16 -55 30.5 -119.5t24 -134.5t14.5 -119t9 -114.5 t6 -77.5q0 -4 15 -113q4 -41 6 -63q4 -37 2 -54q-2 -10 -6 -18q-10 -27 -35 -37q-41 -20 -76 10q-8 8 -14 20.5t-13 35.5l-8 28q-4 14 -6 19l-14 41q-133 -98 -250 -119q-111 -20 -203 10q-94 31 -149 105q-59 74 -58.5 174zM221 190q31 -39 89.5 -58t131.5 -7 q91 19 224 119q-57 139 -88 180q-68 84 -174.5 80t-167.5 -98q-84 -125 -15 -216zM262 1219q-25 84 33.5 156.5t163.5 92.5q113 25 186 -10q82 -37 86 -125q4 -76 -54.5 -137t-148.5 -88q-16 -4 -32 0q-86 -16 -149.5 12.5t-84.5 98.5zM391 1255q6 -18 43 -20q39 -2 98 25 q9 4 19 6q47 31 45 61q0 4 -8 10q-33 14 -101 0q-43 -10 -66.5 -28.5t-27.5 -31.5t-2 -22z" />
<glyph unicode="&#xe6;" horiz-adv-x="1376" d="M85 253q-5 89 30 159q33 74 93 132t132 83q166 57 289 -45q57 -49 106 -133q4 4 10 6q-27 254 -92 376q-39 70 -84 78q-61 8 -159 -82q-20 -20 -48 -18t-47.5 22.5t-17.5 48.5t22 46q145 135 269 116q96 -14 164 -112q57 76 141 110.5t166 25.5t145 -54q59 -41 91 -106.5 t20 -143.5q-20 -164 -223 -320q-98 -76 -205 -100l4 -63q0 -39 2 -74v-23v-6v-4v-2v-2q14 -53 41 -74q29 -27 84 -10q66 18 135.5 80.5t106.5 140.5q12 27 38.5 36t52 -3t35 -39t-3.5 -51q-49 -102 -139 -187q-92 -82 -188 -108q-123 -35 -209 37q-53 45 -80 129q-4 2 -8 6 l-2 2q-121 -92 -240 -129q-238 -74 -371 94q-55 72 -60 161zM240 356q-47 -104 12 -178q76 -96 223 -51q103 33 209 117l-31 65q-57 123 -110 168q-66 55 -158 23q-45 -16 -84 -54q-39 -39 -61 -90zM819 782q41 -127 60 -303q63 18 131 70q158 123 172 231q10 76 -54 121 q-43 29 -99 32t-114.5 -34t-93.5 -113q0 -2 -2 -4z" />
<glyph unicode="&#xe7;" horiz-adv-x="876" d="M80 298.5q-47 188.5 12 403.5q43 147 129 241.5t191 98.5q117 6 189.5 -95t88.5 -273q2 -29 -15.5 -50.5t-46 -23.5t-50 15.5t-23.5 46.5q-6 74 -23.5 127t-39 76.5t-40 33.5t-34.5 8q-47 -2 -104.5 -62.5t-90.5 -178.5q-37 -125 -27.5 -233.5t46.5 -186.5t92 -119 q82 -57 178 -16q125 53 242 254q14 25 40.5 31.5t51 -6.5t32 -39.5t-5.5 -51.5q-137 -242 -307 -313l-18 -9q-49 -102 -180 -292q-16 -23 -43 -28t-50.5 11.5t-28.5 43t11 50.5q94 137 131 201q-72 10 -131 55q-129 92 -176 280.5z" />
<glyph unicode="&#xe8;" d="M76 522q14 201 104 346q109 176 269 174q80 0 145 -56t111 -132q41 -70 55 -133q8 -37 6 -66q-6 -47 -41 -73q-20 -14 -59 -23q-25 -4 -66 -8q-59 -4 -166 -6q-90 -2 -221 0l-4 -33q-12 -172 50.5 -282.5t182.5 -112.5q63 -2 104.5 18.5t106.5 79.5q14 14 30.5 34.5 t29.5 37.5l28 49l27 41q16 25 44 30t51.5 -10.5t28.5 -43t-9 -50.5q-4 -4 -27 -37l-33 -53q-14 -20 -36.5 -50t-43.5 -46q-78 -72 -143 -104.5t-162 -30.5q-106 2 -183 53t-117 133t-55 171t-7 183zM235.5 1342q-2.5 28 16 49.5t46 23.5t50.5 -16l193 -170q20 -18 22 -47 t-16.5 -49.5t-47 -22.5t-48.5 16l-193 170q-20 18 -22.5 46zM242 680q106 -2 190 0q105 2 158 6q12 2 37 4q-8 45 -39 96q-33 55 -72 88t-67 33q-86 0 -154 -110q-31 -51 -53 -117z" />
<glyph unicode="&#xe9;" d="M76 522q14 201 104 346q109 176 269 174q80 0 145 -56t111 -132q41 -70 55 -133q8 -37 6 -66q-6 -47 -41 -73q-20 -14 -59 -23q-25 -4 -66 -8q-59 -4 -166 -6q-90 -2 -221 0l-4 -33q-12 -172 50.5 -282.5t182.5 -112.5q63 -2 104.5 18.5t106.5 79.5q14 14 30.5 34.5 t29.5 37.5l28 49l27 41q16 25 44 30t51.5 -10.5t28.5 -43t-9 -50.5q-4 -4 -27 -37l-33 -53q-14 -20 -36.5 -50t-43.5 -46q-78 -72 -143 -104.5t-162 -30.5q-106 2 -183 53t-117 133t-55 171t-7 183zM242 680q106 -2 190 0q105 2 158 6q12 2 37 4q-8 45 -39 96q-33 55 -72 88 t-67 33q-86 0 -154 -110q-31 -51 -53 -117zM373 1166.5q-4 27.5 12 50.5l166 223q14 25 42 30t51.5 -10.5t28.5 -43t-11 -50.5q-12 -20 -166 -231q-18 -23 -46 -27t-50.5 13.5t-26.5 45z" />
<glyph unicode="&#xea;" d="M76 522q14 201 104 346q109 176 269 174q80 0 145 -56t111 -132q41 -70 55 -133q8 -37 6 -66q-6 -47 -41 -73q-20 -14 -59 -23q-25 -4 -66 -8q-59 -4 -166 -6q-90 -2 -221 0l-4 -33q-12 -172 50.5 -282.5t182.5 -112.5q63 -2 104.5 18.5t106.5 79.5q14 14 30.5 34.5 t29.5 37.5l28 49l27 41q16 25 44 30t51.5 -10.5t28.5 -43t-9 -50.5q-4 -4 -27 -37l-33 -53q-14 -20 -36.5 -50t-43.5 -46q-78 -72 -143 -104.5t-162 -30.5q-106 2 -183 53t-117 133t-55 171t-7 183zM211 1149.5q-4 27.5 12 50.5l47 62l41 57q16 23 29 37q61 78 123 69 q33 -4 65 -30q16 -16 43 -47l125 -140q18 -20 18.5 -47.5t-20 -47t-48.5 -19.5t-48 20q-29 31 -127 146q-12 12 -18 20l-9 -8l-26 -35l-41 -57q-25 -33 -43 -62q-18 -23 -46 -27t-50.5 13.5t-26.5 45zM242 680q106 -2 190 0q105 2 158 6q12 2 37 4q-8 45 -39 96 q-33 55 -72 88t-67 33q-86 0 -154 -110q-31 -51 -53 -117z" />
<glyph unicode="&#xeb;" d="M76 522q14 201 104 346q109 176 269 174q80 0 145 -56t111 -132q41 -70 55 -133q8 -37 6 -66q-6 -47 -41 -73q-20 -14 -59 -23q-25 -4 -66 -8q-59 -4 -166 -6q-90 -2 -221 0l-4 -33q-12 -172 50.5 -282.5t182.5 -112.5q63 -2 104.5 18.5t106.5 79.5q14 14 30.5 34.5 t29.5 37.5l28 49l27 41q16 25 44 30t51.5 -10.5t28.5 -43t-9 -50.5q-4 -4 -27 -37l-33 -53q-14 -20 -36.5 -50t-43.5 -46q-78 -72 -143 -104.5t-162 -30.5q-106 2 -183 53t-117 133t-55 171t-7 183zM242 680q106 -2 190 0q105 2 158 6q12 2 37 4q-8 45 -39 96q-33 55 -72 88 t-67 33q-86 0 -154 -110q-31 -51 -53 -117zM287 1245.5q0 28.5 19.5 48t48 19.5t48 -19.5t19.5 -48t-19.5 -48t-48 -19.5t-48 19.5t-19.5 48zM487 1243q0 29 19.5 48.5t48.5 19.5t48.5 -19.5t19.5 -48.5t-19.5 -48t-48.5 -19t-48.5 19t-19.5 48z" />
<glyph unicode="&#xec;" horiz-adv-x="206" d="M-55 1312.5q0 28.5 19.5 48t48 19.5t46.5 -20l162 -168q20 -20 18.5 -48t-22 -47.5t-48.5 -17.5t-46 23l-158 164q-20 18 -20 46.5zM27 20q0 8 10 455q6 250 -8 445q-2 29 16 50t46 23t49.5 -16t23.5 -45q14 -184 8 -461q-10 -430 -10 -451q0 -29 -19.5 -48t-48 -19 t-48 19.5t-19.5 47.5z" />
<glyph unicode="&#xed;" horiz-adv-x="206" d="M-16 1119q-4 27 12 50l33 45q16 23 18 26t13.5 16.5t13.5 16.5t20 25l37 41q18 23 46 25t49.5 -16.5t23.5 -46t-17 -48.5l-36 -43q-16 -20 -18.5 -23t-11.5 -14.5t-11 -14.5t-17 -23l-33 -45q-16 -23 -43.5 -27t-51 12.5t-27.5 43.5zM31 20q0 8 10 455q6 250 -8 445 q-2 29 16.5 50t46 23t49 -16t23.5 -45q14 -184 8 -461q-10 -430 -10 -451q0 -29 -19.5 -48t-48 -19t-48 19.5t-19.5 47.5z" />
<glyph unicode="&#xee;" horiz-adv-x="206" d="M-82 1113.5q-8 26.5 6 51.5q72 137 90 166q23 35 41 51q35 33 78 29q37 -4 68 -35q16 -18 39 -51q12 -18 43 -72l49 -82q14 -23 8 -50t-29.5 -41.5t-51.5 -8.5t-42 31q-18 29 -48 80t-42 69l-2 2q-14 -25 -82 -149q-12 -27 -39 -35t-52.5 5t-33.5 39.5zM27 20q0 8 10 455 q6 250 -8 445q-2 29 16 50t46 23t49.5 -16t23.5 -45q14 -184 8 -461q-10 -430 -10 -451q0 -29 -19.5 -48t-48 -19t-48 19.5t-19.5 47.5z" />
<glyph unicode="&#xef;" horiz-adv-x="206" d="M-43 1192q0 29 19.5 48.5t48 19.5t48 -19.5t19.5 -48.5t-19.5 -48.5t-48 -19.5t-48 19.5t-19.5 48.5zM27 20q0 8 10 455q6 250 -8 445q-2 29 16 50t46 23t49.5 -16t23.5 -45q14 -184 8 -461q-10 -430 -10 -451q0 -29 -19.5 -48t-48 -19t-48 19.5t-19.5 47.5zM143 1185.5 q0 28.5 19.5 48t48.5 19.5t48.5 -19.5t19.5 -48t-19.5 -48t-48.5 -19.5t-48.5 19.5t-19.5 48z" />
<glyph unicode="&#xf0;" horiz-adv-x="757" d="M43 820.5q4 27.5 27 45.5q72 51 157 131q-72 63 -127 90q-27 12 -36 39t3.5 52.5t39 35t51.5 -3.5q78 -39 170 -120l143 127q20 18 48 16t46.5 -23.5t16.5 -49t-25 -46.5l-133 -121q72 -80 131 -168l35 21q23 14 50.5 8t41.5 -29.5t8 -51.5t-31 -42l-32 -22 q16 -29 28 -56q102 -211 76 -370q-33 -201 -254 -273q-76 -27 -150.5 -14.5t-127.5 59.5q-53 51 -67.5 125t13.5 156q72 217 301 407q-54 84 -122 158q-96 -88 -172 -145q-23 -16 -50.5 -12t-45 26.5t-13.5 50zM272 295q-31 -94 21 -139q49 -47 143 -19q143 47 162 168 q20 117 -63 289l-17 33q-188 -160 -246 -332z" />
<glyph unicode="&#xf1;" horiz-adv-x="911" d="M45 952q-6 27 9.5 50.5t43 28.5t51 -10t27.5 -44q29 -139 33 -352q35 63 74 118q90 133 182 195q129 86 242 18q74 -43 116 -186q33 -104 51 -266q27 -236 23 -473q0 -27 -20.5 -46.5t-48 -19.5t-47 20.5t-19.5 49.5q4 219 -23 452q-16 154 -45 242q-29 94 -57 113 q-39 23 -98 -17q-68 -45 -146 -159q-68 -100 -119 -211q-51 -113 -57 -166q-6 -37 -8 -105q-4 -84 -6 -116q0 -4 -2 -9v-4q0 -8 -4 -16q-6 -10 -15 -19q-27 -29 -63 -18q-29 6 -43 31q-4 8 -6 16l-2 14q-2 2 -2 8.5t2 28.5q2 68 2 74q0 27 3 114t3 136v88q0 70 -1 94.5 t-3 84t-5.5 93t-8.5 80.5t-13 88zM167 1116q-7 26 5 51q92 166 193 193q78 20 174 -45q70 -49 86 -53q29 -4 73 51q16 23 45 25.5t50.5 -13.5t24.5 -45t-13 -49q-94 -121 -203 -103q-16 4 -33.5 10.5t-35 15.5t-27.5 17l-27 19q-16 12 -18 12q-45 31 -64 27 q-43 -12 -106 -127q-14 -25 -41 -32t-51.5 6.5t-31.5 39.5z" />
<glyph unicode="&#xf2;" horiz-adv-x="839" d="M71 420q-5 86 13 162q31 174 119 295q106 141 250 149h2q27 12 53 2t51 -22q14 -4 25 -15q86 -49 142 -126t78.5 -162t26 -177t-21.5 -174q-49 -203 -182 -307q-158 -127 -342 -33q-72 35 -122 101.5t-68.5 143.5t-23.5 163zM215 557q-25 -145 10 -263t121 -163 q106 -53 197 21q96 76 135 233q37 152 -5 289t-163 205l-31 8q-12 4 -18 4q-80 -4 -148 -96q-72 -94 -98 -238zM240 1351.5q0 28.5 18 49t47 20.5t49 -18q184 -174 187 -178q20 -18 20 -47t-19.5 -48.5t-48 -19.5t-47.5 20q-2 0 -186 175q-20 18 -20 46.5z" />
<glyph unicode="&#xf3;" horiz-adv-x="827" d="M64.5 420q-5.5 86 13.5 162q31 174 119 295q106 141 249 149h3q27 12 53 2t51 -22q14 -4 25 -15q86 -49 142 -126t78.5 -162t25.5 -177t-21 -174q-49 -203 -182 -307q-158 -127 -342 -33q-72 35 -122.5 101.5t-68.5 143.5t-23.5 163zM209 557q-25 -145 10 -263t121 -163 q106 -53 197 21q96 76 135 233q37 152 -5 289t-163 205l-31 8q-12 4 -18 4q-80 -4 -148 -96q-72 -94 -98 -238zM295 1118.5q-2 28.5 16 48.5l176 209q18 20 46 22.5t49.5 -16t23.5 -46t-16 -50.5l-176 -205q-16 -23 -45 -24.5t-50.5 16t-23.5 46z" />
<glyph unicode="&#xf4;" horiz-adv-x="827" d="M71 420q-5 86 13 162q31 174 121 295q104 141 248 149h2q27 12 53 2t51 -22q14 -4 25 -15q86 -49 142 -126t78.5 -162t26 -177t-21.5 -174q-49 -203 -182 -307q-158 -127 -342 -33q-72 35 -122 101.5t-68.5 143.5t-23.5 163zM188.5 1133.5q-1.5 27.5 16.5 50.5 q45 55 121 164q27 35 41 51q33 35 69 39q43 4 80 -29q20 -16 49 -53l135 -182q16 -23 13.5 -50.5t-25 -44t-50.5 -13.5t-44 26l-137 182l-8 12l-13 -18q-84 -117 -129 -170q-16 -23 -43.5 -25t-50.5 15.5t-24.5 45zM215 557q-25 -145 10 -263t121 -163q106 -53 197 21 q96 76 135 233q37 152 -5 289t-163 205l-31 8q-12 4 -18 4q-80 -4 -148 -96q-72 -94 -98 -238z" />
<glyph unicode="&#xf5;" horiz-adv-x="815" d="M58 420q-5 86 14 162q31 174 118 295q106 141 250 149h2q27 12 53.5 2t51.5 -22q14 -4 24 -15q86 -49 142.5 -126t79 -162t25.5 -177t-21 -174q-49 -203 -183 -307q-158 -127 -342 -33q-72 35 -122 101.5t-68.5 143.5t-23.5 163zM143.5 1147.5q-3.5 27.5 14.5 50.5 q102 137 194 154q72 14 156 -45q57 -41 76 -43q37 -4 100 53q20 18 48 17t46.5 -21.5t17.5 -48t-22 -45.5q-109 -102 -209 -91q-51 8 -135 68q-37 27 -53 25q-41 -8 -113 -105q-16 -23 -43.5 -27t-50.5 13.5t-26.5 45zM203 557q-25 -145 10 -263t121 -163q106 -53 196 21 q96 76 136 233q37 152 -5 289t-163 205l-31 8q-12 4 -18 4q-80 -4 -148 -96q-72 -94 -98 -238z" />
<glyph unicode="&#xf6;" horiz-adv-x="808" d="M58 420q-5 86 14 162q31 174 118 295q106 141 250 149h2q27 12 53.5 2t51.5 -22q14 -4 24 -15q86 -49 142.5 -126t79 -162t25.5 -177t-21 -174q-49 -203 -183 -307q-158 -127 -342 -33q-72 35 -122 101.5t-68.5 143.5t-23.5 163zM203 557q-25 -145 10 -263t121 -163 q106 -53 196 21q96 76 136 233q37 152 -5 289t-163 205l-31 8q-12 4 -18 4q-80 -4 -148 -96q-72 -94 -98 -238zM246 1251.5q0 28.5 19.5 48t48 19.5t48 -19.5t19.5 -48t-19.5 -48t-48 -19.5t-48 19.5t-19.5 48zM479 1255.5q0 28.5 19.5 48t48 19.5t48 -19.5t19.5 -48 t-19.5 -48t-48 -19.5t-48 19.5t-19.5 48z" />
<glyph unicode="&#xf7;" horiz-adv-x="731" d="M86 650.5q-2 27.5 17.5 48t48.5 22.5q76 2 153.5 13t188.5 32l159 27q27 4 50.5 -12.5t27.5 -44t-12.5 -51t-44.5 -28.5q-41 -6 -154.5 -25.5t-197.5 -30.5t-166 -15q-27 -2 -47.5 17.5t-22.5 47zM317 460.5q0 28.5 19.5 48t48.5 19.5t48.5 -19.5t19.5 -48t-19.5 -48 t-48.5 -19.5t-48.5 19.5t-19.5 48zM322 952.5q0 28.5 19 48t48 19.5t48.5 -19.5t19.5 -48t-19.5 -48t-48.5 -19.5t-48 19.5t-19 48z" />
<glyph unicode="&#xf8;" horiz-adv-x="821" d="M58 420q-5 86 14 162q31 174 118 295q106 141 250 149h2q27 12 53.5 2t51.5 -22q14 -4 24 -15q86 -49 142.5 -126t79 -162t25.5 -177t-21 -174q-49 -203 -183 -307q-158 -127 -342 -33q-72 35 -122 101.5t-68.5 143.5t-23.5 163zM203 328q230 213 420 428 q-47 78 -125 123l-31 8q-12 4 -18 4q-80 -4 -148 -96q-72 -94 -98 -238q-20 -123 0 -229zM258 197q33 -43 76 -66q106 -53 196 21q96 76 136 233q28 116 10 227q-190 -209 -418 -415z" />
<glyph unicode="&#xf9;" horiz-adv-x="876" d="M66 583.5q4 100.5 8 155t11 133t9 95.5q2 27 24.5 45t50.5 16t46 -23.5t16 -50.5q-2 -20 -9 -98t-11 -129t-8 -145.5t2 -151.5q8 -160 51 -244q43 -80 117 -82q43 0 86 52q45 53 86 159q53 139 88 361q10 57 22 166l9 63q2 14 2 19.5t1 8.5t1 5l6 12q4 8 10 15 q23 25 55 22q35 -2 54 -31q4 -8 8 -18q2 -6 2 -12v-6q0 -494 71 -859q6 -27 -9 -50t-43.5 -28.5t-52.5 10t-28 44.5q-29 143 -45 295q-10 -33 -22 -64q-49 -127 -109 -198q-86 -102 -196 -101q-156 4 -234 158q-57 109 -67 295q-6 61 -2 161.5zM264.5 1256q-2.5 28 17 48.5 t47.5 22.5t48 -18q88 -80 207 -201q18 -20 18 -48t-20.5 -47.5t-48 -19.5t-48.5 21q-115 119 -198 196q-20 18 -22.5 46z" />
<glyph unicode="&#xfa;" horiz-adv-x="876" d="M59 583.5q4 100.5 8.5 155t11.5 133t9 95.5q2 27 24.5 45t50 16t47 -23.5t17.5 -50.5q-2 -20 -9 -98t-11 -129t-8 -145.5t2 -151.5q8 -160 51 -244q43 -80 117 -82q43 0 86 52q47 53 86 159q55 139 90 361q10 57 24 166l9 63q2 14 2 19.5t1 8.5t1 5l4 12q4 8 10 15 q23 25 57 22q35 -2 54 -31q4 -8 8 -18q2 -6 2 -12v-6q0 -494 71 -859q6 -27 -9 -50t-43.5 -28.5t-52.5 10t-28 44.5q-31 143 -47 295q-10 -33 -22 -64q-49 -127 -109 -198q-86 -102 -198 -101q-156 4 -236 158q-57 109 -68 295q-6 61 -2 161.5zM372 1026.5q-5 27.5 11 50.5 q111 166 215 287q18 20 46 22.5t49.5 -16t23.5 -46.5t-17 -50q-100 -115 -206 -270q-14 -25 -42 -30t-51.5 10t-28.5 42.5z" />
<glyph unicode="&#xfb;" horiz-adv-x="890" d="M74 583.5q4 100.5 8 155t11 133t9 95.5q2 27 25 45t50.5 16t47 -23.5t17.5 -50.5q-2 -20 -9.5 -98t-11.5 -129t-8 -145.5t2 -151.5q8 -160 51 -244q43 -80 117 -82q43 0 86 52q47 53 86 159q55 139 90 361q10 57 25 166l8 63q2 14 2 19.5t1 8.5t1 5l4 12q4 8 10 15 q23 25 58 22q35 -2 53 -31q4 -8 8 -18q2 -6 2 -12v-6q0 -494 72 -859q6 -27 -9.5 -50t-44 -28.5t-52 10t-27.5 44.5q-31 143 -47 295q-10 -33 -23 -64q-49 -127 -108 -198q-86 -102 -199 -101q-156 4 -236 158q-57 109 -67 295q-6 61 -2 161.5zM218 1093.5q-7 26.5 5 51.5 q104 184 152 239q35 43 71 54q53 16 97 -25q16 -18 39 -57l30 -62q45 -82 103 -131q20 -18 22 -47t-16.5 -49t-47 -22.5t-48.5 16.5q-74 66 -129 168l-29 55q-39 -51 -125 -205q-14 -25 -41 -32t-51.5 6.5t-31.5 40z" />
<glyph unicode="&#xfc;" horiz-adv-x="890" d="M74 583.5q4 100.5 8 155t11 133t9 95.5q2 27 25 45t50.5 16t47 -23.5t17.5 -50.5q-2 -20 -9.5 -98t-11.5 -129t-8 -145.5t2 -151.5q8 -160 51 -244q43 -80 117 -82q43 0 86 52q47 53 86 159q55 139 90 361q10 57 25 166l8 63q2 14 2 19.5t1 8.5t1 5l4 12q4 8 10 15 q23 25 58 22q35 -2 53 -31q4 -8 8 -18q2 -6 2 -12v-6q0 -494 72 -859q6 -27 -9.5 -50t-44 -28.5t-52 10t-27.5 44.5q-31 143 -47 295q-10 -33 -23 -64q-49 -127 -108 -198q-86 -102 -199 -101q-156 4 -236 158q-57 109 -67 295q-6 61 -2 161.5zM293 1165.5q0 28.5 19.5 48 t48 19.5t48 -19.5t19.5 -48t-19.5 -48t-48 -19.5t-48 19.5t-19.5 48zM551 1149q0 29 19.5 48.5t48 19.5t48 -19.5t19.5 -48.5t-19.5 -48.5t-48 -19.5t-48 19.5t-19.5 48.5z" />
<glyph unicode="&#xfd;" horiz-adv-x="751" d="M78 989q2 29 23.5 46.5t50 15.5t46 -23.5t15.5 -50.5q-27 -279 0 -531q18 -174 61 -260q20 -37 43 -51q18 -10 43 -4l2 4q4 2 15.5 17.5t23.5 37.5q33 63 70 175q55 170 84 325q18 104 23 164q0 10 2 70v30q0 6 2 11q0 8 8 22q16 29 49 33q37 4 61 -25l13 -24 q2 -4 3 -8.5t1 -8.5q10 -98 10 -247v-121q0 -113 2 -119q10 -459 29 -813q2 -29 -17.5 -49.5t-47 -22.5t-48 17.5t-22.5 46.5q-14 305 -25 671q-39 -117 -78 -190q-57 -109 -127 -127q-80 -20 -145 20q-55 33 -92 105q-55 106 -76 307q-29 268 -2 557zM340 1116 q29 78 76 140.5t116 138.5q18 20 47 20t49.5 -18.5t20.5 -47t-18 -49.5q-127 -135 -164 -233q-10 -25 -35.5 -37t-51.5 -2t-38 35.5t-2 52.5z" />
<glyph unicode="&#xfe;" horiz-adv-x="743" d="M31 -307q29 815 8 1753q0 29 19.5 49.5t47 20.5t48 -19.5t20.5 -46.5q6 -301 8 -588q53 63 115 103q109 68 209 45q115 -27 182 -162q68 -141 59.5 -302t-84 -295t-202.5 -203t-285 -34q-4 -166 -10 -325q0 -29 -20.5 -47.5t-49 -18.5t-47 20.5t-18.5 49.5zM178 154 q119 -35 213 11t154.5 152.5t68 235.5t-44.5 233q-41 78 -94 91q-45 10 -106 -27q-63 -41 -115.5 -118t-63.5 -150q-2 -13 -8 -23q0 -207 -4 -405z" />
<glyph unicode="&#xff;" horiz-adv-x="737" d="M78 989q2 29 23.5 46.5t50 15.5t46 -23.5t15.5 -50.5q-27 -279 0 -531q18 -174 61 -260q20 -37 43 -51q18 -10 43 -4l2 4q4 2 15.5 17.5t23.5 37.5q33 63 70 175q55 170 84 325q18 104 23 164q0 10 2 70v30q0 6 2 11q0 8 8 22q16 29 49 33q37 4 61 -25l13 -24 q2 -4 3 -8.5t1 -8.5q10 -98 10 -247v-121q0 -113 2 -119q10 -459 29 -813q2 -29 -17.5 -49.5t-47 -22.5t-48 17.5t-22.5 46.5q-14 305 -25 671q-39 -117 -78 -190q-57 -109 -127 -127q-80 -20 -145 20q-55 33 -92 105q-55 106 -76 307q-29 268 -2 557zM244 1175.5 q0 28.5 19.5 48t48 19.5t48 -19.5t19.5 -48t-19.5 -48t-48 -19.5t-48 19.5t-19.5 48zM473 1177.5q0 28.5 19.5 48t48 19.5t48 -19.5t19.5 -48t-19.5 -48t-48 -19.5t-48 19.5t-19.5 48z" />
<glyph unicode="&#x152;" horiz-adv-x="1433" d="M42.5 538.5q-17.5 176.5 0.5 278.5q33 227 150 418q125 209 296 235q133 23 242 -81q13 6 25 8q346 41 514 51q29 2 49 -17.5t22 -47t-17 -48t-46 -22.5q-162 -8 -440 -43q12 -272 18 -432q266 29 414 32q29 0 49 -18t20 -47t-18 -49.5t-47 -20.5q-145 -4 -414 -33 q10 -346 0 -616q424 29 520 33q29 0 49.5 -18.5t20.5 -47t-18.5 -49t-47.5 -20.5q-86 -2 -178 -8.5t-212 -15.5t-179 -13q-10 0 -20 2h-7q-23 2 -40 15t-23 36q-59 -43 -111 -59q-182 -61 -321 34q-113 78 -180 250q-53 137 -70.5 313.5zM176 553q16 -156 64 -279 q51 -133 131 -188q84 -57 202 -18q31 10 76 45q6 4 35 26l43 31q8 371 -20 1030q-5 4 -7 8q-84 145 -188 129q-111 -16 -205 -172q-100 -168 -129 -368q-18 -86 -2 -244z" />
<glyph unicode="&#x153;" horiz-adv-x="1345" d="M70 315q-23 133 5.5 279.5t96.5 259.5q106 178 264 182q138 4 240 -129q98 117 225 115q80 0 145.5 -56.5t110.5 -131.5q41 -70 55 -134q8 -37 7 -65q-6 -47 -41 -74q-20 -14 -60 -22q-25 -4 -65 -9q-59 -4 -166 -6q-90 -2 -221 0l-4 -32q-12 -172 50 -283t183 -113 q63 -2 104 18.5t107 80.5q14 14 30.5 34.5t28.5 36.5l29 49l27 41q16 25 43.5 30t51 -10.5t29 -43t-9.5 -49.5q-4 -4 -26 -37l-33 -53q-14 -20 -36.5 -50t-43.5 -47q-78 -72 -143.5 -104.5t-161.5 -30.5q-111 2 -193 59q-106 -76 -235 -69q-170 10 -267.5 111.5 t-125.5 252.5zM203 340q43 -242 268 -254q76 -4 135 35q-96 154 -78 381q10 152 70 280q-6 5 -8 11q-68 113 -150 108q-84 -2 -153 -117q-55 -92 -79 -213.5t-5 -230.5zM694 659q106 -2 191 0q104 3 157 7q12 2 37 4q-8 45 -39 96q-33 55 -71.5 88t-67.5 33q-86 0 -153 -111 q-31 -51 -54 -117z" />
<glyph unicode="&#x2000;" horiz-adv-x="939" />
<glyph unicode="&#x2001;" horiz-adv-x="1878" />
<glyph unicode="&#x2002;" horiz-adv-x="939" />
<glyph unicode="&#x2003;" horiz-adv-x="1878" />
<glyph unicode="&#x2004;" horiz-adv-x="626" />
<glyph unicode="&#x2005;" horiz-adv-x="469" />
<glyph unicode="&#x2006;" horiz-adv-x="313" />
<glyph unicode="&#x2007;" horiz-adv-x="313" />
<glyph unicode="&#x2008;" horiz-adv-x="234" />
<glyph unicode="&#x2009;" horiz-adv-x="375" />
<glyph unicode="&#x200a;" horiz-adv-x="104" />
<glyph unicode="&#x2010;" horiz-adv-x="671" d="M61 660.5q2 27.5 22.5 47t47.5 17.5q190 -8 412 16q29 2 50 -15t24.5 -45t-14 -49.5t-44.5 -25.5q-233 -25 -432 -16q-29 2 -48.5 22.5t-17.5 48z" />
<glyph unicode="&#x2011;" horiz-adv-x="671" d="M61 660.5q2 27.5 22.5 47t47.5 17.5q190 -8 412 16q29 2 50 -15t24.5 -45t-14 -49.5t-44.5 -25.5q-233 -25 -432 -16q-29 2 -48.5 22.5t-17.5 48z" />
<glyph unicode="&#x2012;" horiz-adv-x="671" d="M61 660.5q2 27.5 22.5 47t47.5 17.5q190 -8 412 16q29 2 50 -15t24.5 -45t-14 -49.5t-44.5 -25.5q-233 -25 -432 -16q-29 2 -48.5 22.5t-17.5 48z" />
<glyph unicode="&#x2013;" horiz-adv-x="1136" d="M60.5 660.5q3.5 27.5 41 47t87.5 17.5q349 -8 757 16q53 2 91.5 -15t45 -45t-25.5 -49.5t-82 -25.5q-428 -25 -793 -16q-54 2 -89.5 22.5t-32 48z" />
<glyph unicode="&#x2014;" horiz-adv-x="2159" d="M60.5 660.5q7.5 27.5 83 47t174.5 17.5q698 -8 1514 16q107 2 184 -15t90 -45t-51.5 -49.5t-163.5 -25.5q-856 -25 -1588 -16q-106 2 -178 22.5t-64.5 48z" />
<glyph unicode="&#x2018;" horiz-adv-x="466" d="M55 1212q27 131 88 218q61 88 172 153q25 12 52.5 5t41 -30.5t6.5 -51.5t-30 -42q-88 -49 -132 -113.5t-67 -166.5q-4 -27 -27.5 -42.5t-51 -10t-43 29t-9.5 51.5z" />
<glyph unicode="&#x2019;" horiz-adv-x="395" d="M53 1095.5q0 28.5 21 47.5q166 168 200 379q6 29 29 45t50.5 11t44 -27.5t12.5 -49.5q-43 -256 -242 -452q-18 -20 -47 -20.5t-48.5 19t-19.5 48z" />
<glyph unicode="&#x201c;" horiz-adv-x="600" d="M47 1184q43 135 95.5 231t148.5 170q23 16 50.5 13t43.5 -25.5t13.5 -50t-25.5 -43.5q-74 -57 -115 -136q-41 -74 -80 -200q-8 -27 -33.5 -40t-52 -5t-40 33.5t-5.5 52.5zM266 1149q29 119 80 205t146 157q23 16 50 13.5t43.5 -25t13.5 -50.5t-26 -44 q-72 -57 -111.5 -122.5t-64.5 -166.5q-6 -27 -30.5 -41t-51 -8t-41 30.5t-8.5 51.5z" />
<glyph unicode="&#x201d;" horiz-adv-x="620" d="M74 1118.5q0 28.5 20 46.5q195 197 168 359q-6 29 10.5 51t44 27.5t50 -11t26.5 -43.5q41 -231 -205 -477q-18 -20 -46.5 -20t-48 19.5t-19.5 48zM319.5 1090.5q-2.5 27.5 16.5 48.5q152 180 164 383q2 29 22.5 47t49 16t47 -22.5t16.5 -49.5q-16 -248 -197 -460 q-18 -23 -45.5 -25t-49 16.5t-24 46z" />
<glyph unicode="&#x202f;" horiz-adv-x="375" />
<glyph unicode="&#x205f;" horiz-adv-x="469" />
<glyph unicode="&#x20ac;" horiz-adv-x="1370" d="M33 416.5q-2 27.5 17.5 48t45.5 22.5q109 6 269 21q-20 109 -13 217q-123 -10 -225 -4q-27 2 -46.5 22.5t-17 48t22.5 47t49 17.5q106 -6 236 4q23 102 71 197q76 150 183.5 254t230.5 131q139 29 259 -54t204 -274q12 -25 2 -51.5t-35.5 -37.5t-52.5 -1t-37 37 q-129 287 -313 248q-82 -16 -168 -99.5t-154 -214.5q-29 -57 -47 -118q10 0 285 41q29 4 51 -13.5t26.5 -45.5t-13 -50.5t-44.5 -26.5q-291 -41 -332 -45q-10 -109 13 -215q170 16 272 23q29 2 49.5 -16.5t22.5 -47t-16.5 -49t-47.5 -22.5q-147 -10 -239 -19 q45 -106 116 -182q123 -131 265 -115q162 16 301 236q14 23 41.5 29t51 -8.5t30 -42t-8.5 -52.5q-172 -272 -399 -297q-209 -23 -379 158q-102 109 -158 260q-184 -18 -297 -25q-29 -2 -49 17.5t-22 47z" />
<glyph unicode="&#x2122;" horiz-adv-x="1433" d="M62.5 1268.5q-5.5 27.5 11 50.5t43.5 29q162 27 381 118q27 12 52 1t36.5 -36.5t0 -51t-35.5 -36.5q-88 -39 -158 -63q53 -442 53 -641q0 -29 -19 -48.5t-48 -19.5t-48.5 19.5t-19.5 48.5q0 193 -49 600q-61 -16 -121 -27q-29 -4 -51 12.5t-27.5 44zM629 1395 q-2 29 15.5 50t43.5 25h10q44 3 64 -34q45 -80 180 -289l80 -123q25 53 59 156l54 159q12 39 20 60q8 14 14.5 23.5t14.5 17.5q20 18 47 18q33 0 55 -26q6 -8 11.5 -19.5t11.5 -28.5q8 -27 18 -75q12 -63 39 -228q45 -285 70 -454q4 -27 -13.5 -49.5t-45 -26.5t-50 13.5 t-27.5 45.5q-39 276 -67 449l-16 100l-9 -22q-37 -113 -63 -172q-20 -43 -37 -68q-31 -43 -66 -55q-27 -6 -51 6q-8 2 -12 8q-4 2 -8 6q-2 4 -6 8t-11 15l-30 45l-95 143l-38 60l14 -150l14 -176q8 -94 12 -148q2 -29 -16 -50t-46 -23t-49.5 16.5t-23.5 44.5 q-51 594 -67 748z" />
<glyph unicode="&#xe000;" horiz-adv-x="1024" d="M0 0v1024h1024v-1024h-1024z" />
</font>
</defs>
</svg>
